<svg width="128" height="37" viewBox="0 0 128 37" fill="none" xmlns="http://www.w3.org/2000/svg">
<path d="M127.468 24.8893L123.562 19.8276L127.126 16.9703C127.354 16.8074 127.487 16.5428 127.48 16.2627C127.484 16.1508 127.465 16.0392 127.424 15.935C127.383 15.8308 127.321 15.7362 127.242 15.657C127.163 15.5778 127.068 15.5158 126.964 15.4748C126.86 15.4339 126.748 15.4148 126.637 15.4189C126.41 15.4077 126.19 15.497 126.038 15.6644L120.922 19.8276V10.6843C120.918 10.5698 120.892 10.4572 120.845 10.3528C120.798 10.2484 120.731 10.1544 120.648 10.076C120.564 9.9976 120.466 9.93645 120.359 9.89604C120.252 9.85563 120.138 9.83674 120.023 9.84046C119.912 9.8364 119.8 9.85545 119.696 9.89641C119.592 9.93738 119.497 9.99939 119.418 10.0786C119.339 10.1577 119.277 10.2524 119.236 10.3566C119.195 10.4608 119.176 10.5724 119.18 10.6843V25.4339C119.183 25.5484 119.209 25.661 119.256 25.7654C119.303 25.8698 119.37 25.9638 119.454 26.0422C119.537 26.1206 119.635 26.1818 119.743 26.2222C119.85 26.2626 119.964 26.2815 120.078 26.2777C120.19 26.2818 120.302 26.2628 120.406 26.2218C120.51 26.1808 120.605 26.1188 120.684 26.0396C120.763 25.9605 120.825 25.8658 120.866 25.7616C120.907 25.6574 120.926 25.5458 120.922 25.4339V21.869L122.12 20.917L126.065 25.8971C126.148 26.011 126.254 26.1062 126.375 26.1766C126.497 26.247 126.633 26.2909 126.773 26.3056C126.885 26.3097 126.996 26.2907 127.1 26.2497C127.205 26.2087 127.299 26.1467 127.378 26.0675C127.458 25.9884 127.52 25.8937 127.561 25.7895C127.601 25.6853 127.621 25.5738 127.616 25.4619C127.638 25.3625 127.637 25.2596 127.613 25.1607C127.59 25.0618 127.544 24.9694 127.48 24.8904L127.468 24.8893ZM113.561 19.9638C112.255 19.5017 111.195 19.12 111.195 18.178C111.195 17.236 112.392 16.9804 113.045 16.9804C113.938 16.9324 114.787 17.2594 115.412 17.8788C115.487 17.9613 115.58 18.0261 115.683 18.0685C115.787 18.111 115.898 18.1301 116.01 18.1244C116.425 18.1099 116.758 17.7896 116.772 17.3621C116.766 17.1654 116.7 16.9752 116.582 16.8174C116.155 16.3112 115.615 15.9123 115.005 15.6526C114.395 15.3928 113.733 15.2796 113.072 15.3218C110.868 15.3218 109.507 16.4647 109.507 18.1791C109.507 20.3288 111.412 20.9694 113.072 21.5811C114.324 21.9896 115.438 22.3434 115.438 23.2954C115.438 24.2475 114.023 24.7911 113.179 24.7911C112.152 24.8435 111.155 24.4562 110.43 23.7307C110.265 23.5739 110.057 23.4698 109.832 23.4316C109.417 23.4461 109.084 23.7664 109.07 24.1939C109.076 24.3906 109.142 24.5808 109.259 24.7386C109.756 25.2944 110.37 25.732 111.058 26.0192C111.745 26.3064 112.489 26.4359 113.233 26.3983C115.736 26.3983 117.206 25.2007 117.206 23.2954C117.206 21.3902 115.22 20.5464 113.56 19.9749L113.561 19.9638ZM103.275 16.8609C105.061 16.8609 105.953 17.8677 106.024 19.8276H100.228C100.417 17.9224 101.48 16.8609 103.275 16.8609ZM107.739 19.8276C107.735 18.8144 107.442 17.8233 106.895 16.9703C106.482 16.4094 105.933 15.9628 105.3 15.6725C104.667 15.3822 103.97 15.2576 103.276 15.3106C100.256 15.3106 98.5133 17.3241 98.5133 20.8355C98.5133 24.3468 100.228 26.4139 103.52 26.4139C104.86 26.4608 106.147 25.992 107.14 25.108C107.233 25.039 107.309 24.9488 107.361 24.8448C107.413 24.7408 107.44 24.626 107.439 24.5098C107.425 24.0946 107.104 23.762 106.677 23.7475C106.504 23.7502 106.339 23.8184 106.215 23.9383C105.479 24.5458 104.556 24.8819 103.602 24.8904C101.642 24.8904 100.391 23.5845 100.336 21.4884H106.731C107.738 21.379 107.738 20.4281 107.738 19.8287L107.739 19.8276ZM91.9795 24.8335C89.966 24.8335 88.9592 23.5276 88.9592 20.86C88.9592 18.1925 89.966 16.8866 91.9795 16.8866C92.5757 16.9194 93.153 17.1074 93.6542 17.4319C94.1554 17.7565 94.563 18.2065 94.8368 18.7372V21.84C94.81 23.6905 93.7486 24.8335 91.9527 24.8335H91.9795ZM95.6806 9.78466C95.5687 9.78059 95.4571 9.79964 95.3529 9.84061C95.2487 9.88158 95.1541 9.94358 95.0749 10.0228C94.9957 10.1019 94.9337 10.1966 94.8927 10.3008C94.8518 10.405 94.8327 10.5165 94.8368 10.6285V16.4524C94.0622 15.6845 93.0153 15.2548 91.9348 15.2548C88.8506 15.2548 87.3085 17.0964 87.3085 20.7797C87.3085 24.4808 88.9682 26.3581 92.071 26.3581C95.1739 26.3581 96.6427 24.6437 96.6427 21.7864V10.6831C96.6169 10.4397 96.5031 10.214 96.3226 10.0486C96.1422 9.88313 95.9075 9.78928 95.6627 9.78466H95.6806ZM81.23 15.2537C80.6897 15.2302 80.1512 15.3308 79.6559 15.5479C79.1606 15.765 78.7216 16.0928 78.3727 16.506V10.6809C78.3766 10.5619 78.356 10.4433 78.3122 10.3325C78.2685 10.2218 78.2024 10.1212 78.1182 10.0369C78.034 9.95273 77.9334 9.88669 77.8226 9.84291C77.7118 9.79913 77.5933 9.77854 77.4742 9.78242C77.3574 9.77763 77.2409 9.79804 77.1327 9.84227C77.0244 9.88649 76.927 9.9535 76.8469 10.0387C76.7669 10.124 76.7061 10.2254 76.6687 10.3363C76.6314 10.4471 76.6183 10.5646 76.6304 10.6809V25.4306C76.6267 25.545 76.6456 25.6591 76.686 25.7662C76.7264 25.8733 76.7876 25.9714 76.866 26.0549C76.9443 26.1383 77.0384 26.2055 77.1428 26.2526C77.2472 26.2996 77.3598 26.3256 77.4742 26.3291C77.5933 26.333 77.7118 26.3124 77.8226 26.2686C77.9334 26.2248 78.034 26.1588 78.1182 26.0746C78.2024 25.9903 78.2685 25.8897 78.3122 25.779C78.356 25.6682 78.3766 25.5496 78.3727 25.4306V19.879C78.3727 17.8655 79.3251 16.8587 81.23 16.8587C83.1353 16.8587 83.7882 17.7025 83.7882 19.716V25.4306C83.7843 25.5496 83.8049 25.6682 83.8487 25.779C83.8925 25.8897 83.9585 25.9903 84.0427 26.0746C84.1269 26.1588 84.2275 26.2248 84.3383 26.2686C84.4491 26.3124 84.5676 26.333 84.6867 26.3291C84.8035 26.3339 84.92 26.3135 85.0283 26.2692C85.1365 26.225 85.234 26.158 85.314 26.0728C85.3941 25.9875 85.4548 25.8861 85.4922 25.7753C85.5295 25.6644 85.5426 25.5469 85.5305 25.4306V19.4202C85.4747 16.6712 84.0605 15.2571 81.2032 15.2571L81.23 15.2537ZM70.9437 19.9616C69.6379 19.4995 68.5775 19.1178 68.5775 18.1757C68.5775 17.2337 69.7752 16.9781 70.4281 16.9781C71.321 16.9301 72.1693 17.2572 72.7943 17.8766C72.9467 18.0266 73.1519 18.1106 73.3658 18.1106C73.5796 18.1106 73.7848 18.0266 73.9372 17.8766C74.0197 17.8011 74.0844 17.7084 74.1269 17.605C74.1693 17.5015 74.1884 17.39 74.1828 17.2784C74.1768 17.0817 74.1106 16.8915 73.993 16.7337C73.5654 16.2275 73.0252 15.8286 72.4156 15.5689C71.806 15.3091 71.144 15.1958 70.4828 15.2381C68.2784 15.2381 66.9179 16.381 66.9179 18.0954C66.9179 20.245 68.8231 20.8857 70.4828 21.4973C71.7351 21.9059 72.849 22.2597 72.849 23.2117C72.849 24.1638 71.4337 24.7073 70.5899 24.7073C69.5631 24.7598 68.5653 24.3725 67.8409 23.647C67.6755 23.4902 67.4673 23.3861 67.2426 23.3479C66.8274 23.3624 66.4948 23.6827 66.4803 24.1102C66.4862 24.3069 66.5525 24.4971 66.6701 24.6549C67.1521 25.2227 67.7528 25.6779 68.4299 25.9882C69.107 26.2985 69.844 26.4564 70.5888 26.4507C73.0923 26.4507 74.5622 25.2531 74.5622 23.3479C74.5622 21.4427 72.5755 20.5576 70.9158 19.9738L70.9437 19.9616ZM60.711 16.8587C62.4969 16.8587 63.3898 17.8655 63.4601 19.8254H57.6361C57.8258 17.9201 58.8884 16.8587 60.6831 16.8587H60.711ZM65.093 19.8254C65.0888 18.8121 64.7961 17.8211 64.2492 16.9681C63.8361 16.4072 63.2871 15.9606 62.6539 15.6703C62.0208 15.3799 61.3241 15.2554 60.6296 15.3084C57.6093 15.3084 55.867 17.3219 55.867 20.8333C55.867 24.3446 57.5814 26.4396 60.8472 26.4396C62.1866 26.4865 63.4735 26.0177 64.4668 25.1337C64.5604 25.0647 64.6362 24.9745 64.6882 24.8705C64.7402 24.7665 64.7668 24.6517 64.766 24.5355C64.7514 24.1203 64.4311 23.7877 64.0036 23.7731C63.831 23.7759 63.6658 23.8441 63.5416 23.964C62.8055 24.5715 61.883 24.9076 60.9287 24.9161C58.9688 24.9161 57.7176 23.6102 57.6629 21.5141H64.0851C65.0919 21.3779 65.0919 20.4259 65.0919 19.8265L65.093 19.8254ZM54.5511 15.3106C53.387 15.2515 52.272 15.7839 51.5844 16.7259V16.2638C51.5844 15.7682 51.1826 15.3653 50.6859 15.3653C50.1893 15.3653 49.7875 15.7671 49.7875 16.2638V25.4351C49.7836 25.5541 49.8042 25.6727 49.8479 25.7834C49.8917 25.8942 49.9578 25.9948 50.042 26.079C50.1262 26.1632 50.2268 26.2293 50.3376 26.2731C50.4483 26.3168 50.5669 26.3374 50.6859 26.3335C50.9293 26.3503 51.1659 26.2599 51.3389 26.088C51.5119 25.9161 51.6001 25.6784 51.5844 25.4351V20.3734C51.5844 18.2237 52.7273 16.9714 54.5511 16.9714C54.663 16.9755 54.7745 16.9564 54.8788 16.9155C54.983 16.8745 55.0776 16.8125 55.1568 16.7333C55.236 16.6541 55.298 16.5595 55.339 16.4553C55.3799 16.3511 55.399 16.2395 55.3949 16.1276C55.3804 15.6723 55.0065 15.3106 54.5511 15.3129V15.3106ZM47.7472 10.3851C44.7805 10.3851 43.6923 12.4801 43.6923 14.44V15.6377H43.1208C42.7882 15.5774 42.4511 15.7214 42.2658 16.0026C42.0806 16.2839 42.0794 16.65 42.2658 16.9324C42.4522 17.2147 42.7882 17.3565 43.1208 17.2973H43.719V25.5154C43.7152 25.6345 43.7357 25.753 43.7795 25.8638C43.8233 25.9746 43.8894 26.0752 43.9736 26.1594C44.0578 26.2436 44.1584 26.3096 44.2692 26.3534C44.3799 26.3972 44.4985 26.4178 44.6175 26.4139C44.8608 26.4307 45.0975 26.3402 45.2705 26.1684C45.4435 25.9965 45.5316 25.7587 45.516 25.5154V17.2147H47.4213C47.8231 17.1422 48.1133 16.7929 48.1133 16.3843C48.1133 15.9758 47.8231 15.6276 47.4213 15.5539H45.5104V14.3563C45.5104 13.296 45.9189 11.9901 47.8231 11.9901C47.9289 11.9974 48.035 11.9834 48.1353 11.9489C48.2356 11.9144 48.3279 11.8601 48.4068 11.7892C48.5664 11.6464 48.6602 11.4544 48.6669 11.2289C48.6378 10.7546 48.2427 10.384 47.7684 10.3851H47.7472Z" fill="#4D4D4D"/>
<path d="M18.0534 0.000169868H31.6613C32.263 -0.00503965 32.8597 0.109623 33.4165 0.337471C33.9734 0.565318 34.4794 0.901786 34.9048 1.32724C35.3303 1.7527 35.6667 2.25863 35.8946 2.81551C36.1224 3.37239 36.2371 3.96907 36.2319 4.57073V18.1786C36.2307 22.9666 34.3282 27.5582 30.9425 30.9438C27.5569 34.3294 22.9653 36.232 18.1773 36.2332H18.0746C15.7021 36.2358 13.3523 35.7709 11.1595 34.8651C8.96671 33.9592 6.97389 32.6302 5.29493 30.9539C3.6161 29.2774 2.2843 27.2863 1.37574 25.0945C0.467177 22.9028 -0.000318534 20.5534 1.62835e-07 18.1808C1.62835e-07 8.17584 8.06963 0.106202 18.0546 0.00351749L18.0534 0.000169868Z" fill="#25C16F"/>
<path d="M18.0535 8.06982C13.4718 8.06982 9.75732 11.7843 9.75732 16.366V22.007C9.7738 22.7335 10.0698 23.4258 10.5837 23.9397C11.0976 24.4536 11.7898 24.7496 12.5164 24.766H14.8636V18.2925H11.6938V16.481C11.8869 13.069 14.7096 10.4014 18.1272 10.4014C21.5448 10.4014 24.3775 13.0801 24.5606 16.481V18.2925H21.3495V24.766H23.4701V24.8687C23.4478 26.2695 22.3183 27.399 20.9175 27.4213H18.3839C18.1785 27.4213 17.952 27.524 17.952 27.7305C17.9631 27.9537 18.1495 28.1524 18.3839 28.1624H20.9365C21.8083 28.1569 22.6429 27.8081 23.2594 27.1916C23.8759 26.5751 24.2247 25.7406 24.2302 24.8687V24.6634C25.4803 24.3821 26.3509 23.2682 26.3509 21.9869V16.4698C26.4658 11.7955 22.7603 8.06982 18.0535 8.06982Z" fill="white"/>
</svg>
