<svg width="120" height="34" viewBox="0 0 120 34" fill="none" xmlns="http://www.w3.org/2000/svg">
<path d="M12.9346 5.51123V14.9016H4.16207V5.51123H0V27.9274H4.16319V18.8418H12.9335V27.9274H17.0978V5.51123H12.9346ZM30.4234 20.6821C30.4234 21.5806 30.0604 22.4423 29.4144 23.0777C28.7684 23.7129 27.8921 24.0699 26.9785 24.0699C26.0648 24.0699 25.1886 23.7129 24.5426 23.0777C23.8965 22.4423 23.5336 21.5806 23.5336 20.6821V11.0801H19.5845V20.6821C19.5845 22.6087 20.3627 24.4564 21.748 25.8187C23.1332 27.181 25.0121 27.9463 26.9712 27.9463C28.9303 27.9463 30.8091 27.181 32.1944 25.8187C33.5796 24.4564 34.3579 22.6087 34.3579 20.6821V11.0801H30.4234V20.6821ZM59.6853 12.0695C59.6853 10.1006 61.0092 9.47681 62.4594 9.47681C63.6284 9.47681 65.1723 10.3521 66.183 11.4136L68.7684 8.41533C67.4777 6.69791 64.8591 5.51123 62.715 5.51123C58.4301 5.51123 55.3316 7.97876 55.3316 12.0695C55.3316 19.6594 64.7642 17.2506 64.7642 21.4988C64.7642 22.8084 63.4712 23.9652 61.9901 23.9652C59.655 23.9652 58.8976 22.8428 57.825 21.655L54.9541 24.5901C56.7907 26.8062 59.0554 27.9319 61.7672 27.9319C65.8383 27.9319 69.1125 25.4344 69.1125 21.5298C69.1125 13.1045 59.6783 15.7227 59.6783 12.0695H59.6853ZM118.042 24.3464C115.709 24.3464 115.045 23.3536 115.045 21.8334V15.1022H118.673V11.6917H115.045V7.19206L111.041 8.95937V22.6699C111.041 26.1768 113.501 27.9441 116.875 27.9441C117.404 27.9529 117.934 27.9108 118.454 27.82L119.431 24.2832C118.99 24.3131 118.485 24.343 118.042 24.343V24.3464ZM45.456 11.192C43.5 11.192 42.1344 11.7504 40.8139 13.0235V5.6453H36.8592V19.3215C36.8592 24.4405 40.6224 27.9485 44.852 27.9485C49.5437 27.9485 53.6708 24.3785 53.6708 19.5719C53.6708 14.8252 49.8727 11.1953 45.456 11.1953V11.192ZM45.4312 24.0339C44.8418 24.0339 44.2582 23.9197 43.7136 23.6979C43.1691 23.4761 42.6743 23.151 42.2575 22.7411C41.8407 22.3313 41.5101 21.8447 41.2846 21.3092C41.059 20.7737 40.943 20.1997 40.943 19.6201C40.943 19.0405 41.059 18.4665 41.2846 17.9311C41.5101 17.3955 41.8407 16.909 42.2575 16.4991C42.6743 16.0892 43.1691 15.7641 43.7136 15.5423C44.2582 15.3205 44.8418 15.2064 45.4312 15.2064C46.6216 15.2064 47.7631 15.6713 48.6049 16.4991C49.4466 17.3269 49.9194 18.4495 49.9194 19.6201C49.9194 20.7907 49.4466 21.9134 48.6049 22.7411C47.7631 23.5689 46.6216 24.0339 45.4312 24.0339ZM88.4064 19.368C88.4064 14.5526 84.2881 10.9915 79.5876 10.9915C75.3587 10.9915 71.5943 14.4983 71.5943 19.6184V33.3024H75.549V25.9142C76.8677 27.1851 78.2352 27.7457 80.189 27.7457C84.6059 27.7457 88.4052 24.1159 88.4052 19.368H88.4064ZM84.6607 19.3193C84.6607 20.4899 84.1879 21.6126 83.3461 22.4403C82.5049 23.268 81.3632 23.7331 80.1727 23.7331C78.9821 23.7331 77.8405 23.268 76.9992 22.4403C76.1574 21.6126 75.6847 20.4899 75.6847 19.3193C75.6847 18.1487 76.1574 17.026 76.9992 16.1983C77.8405 15.3705 78.9821 14.9055 80.1727 14.9055C81.3632 14.9055 82.5049 15.3705 83.3461 16.1983C84.1879 17.026 84.6607 18.1487 84.6607 19.3193Z" fill="#33475B"/>
<path d="M101.185 10.8034V6.89544C101.71 6.65407 102.155 6.271 102.467 5.79081C102.78 5.31061 102.947 4.75305 102.95 4.18301V4.09326C102.95 2.43124 101.579 1.0839 99.8894 1.0839H99.7986C98.987 1.0839 98.2087 1.40096 97.6346 1.96532C97.0606 2.52969 96.7381 3.29513 96.7381 4.09326V4.18301C96.741 4.75305 96.9081 5.31061 97.2207 5.79081C97.5328 6.271 97.9775 6.65407 98.5027 6.89544V10.8034C96.9937 11.0306 95.572 11.6461 94.3826 12.5873L83.4837 4.23952C83.5611 3.96362 83.6019 3.67997 83.6065 3.39521C83.6077 2.72454 83.4068 2.06854 83.029 1.5102C82.6512 0.95185 82.1132 0.516243 81.4839 0.258473C80.854 0.000703938 80.1612 -0.0676473 79.4917 0.0620663C78.8228 0.19178 78.208 0.51373 77.7248 0.987194C77.2416 1.46065 76.9127 2.06437 76.7782 2.72195C76.6443 3.37953 76.7112 4.06145 76.9715 4.68145C77.2317 5.30145 77.673 5.83169 78.2394 6.20504C78.8059 6.57844 79.4725 6.77819 80.1542 6.77906C80.7509 6.77633 81.3366 6.61966 81.8524 6.32479L92.5843 14.5374C91.6202 15.9697 91.1172 17.6544 91.1405 19.3719C91.1643 21.0894 91.7139 22.76 92.717 24.1661L89.4527 27.377C89.189 27.2941 88.9142 27.25 88.6371 27.2463C88.0776 27.2468 87.5304 27.4103 87.0652 27.7165C86.5995 28.0226 86.2374 28.4575 86.0231 28.9662C85.8089 29.4749 85.753 30.0346 85.8625 30.5745C85.9719 31.1144 86.2414 31.6103 86.6373 31.9996C87.0332 32.3889 87.5374 32.6541 88.0864 32.7616C88.6354 32.8691 89.2047 32.8141 89.7217 32.6037C90.2393 32.3932 90.6817 32.0366 90.9926 31.5791C91.3041 31.1215 91.4706 30.5835 91.4711 30.0329C91.4671 29.7605 91.4222 29.4902 91.3378 29.2308L94.5672 26.0541C95.6203 26.8513 96.8446 27.4009 98.147 27.6609C99.4493 27.9207 100.795 27.8841 102.081 27.5536C103.366 27.2231 104.558 26.6075 105.564 25.7542C106.571 24.9008 107.366 23.8321 107.887 22.6302C108.409 21.4282 108.644 20.1248 108.574 18.8197C108.504 17.5146 108.132 16.2426 107.484 15.101C106.838 13.9595 105.934 12.9786 104.842 12.2337C103.75 11.4888 102.499 10.9995 101.185 10.8034ZM99.8469 23.6564C99.2502 23.6725 98.6558 23.5708 98.0998 23.3574C97.5438 23.144 97.0367 22.8231 96.6088 22.4137C96.1809 22.0043 95.841 21.5147 95.6087 20.9739C95.3764 20.433 95.2565 19.8518 95.2565 19.2647C95.2565 18.6776 95.3764 18.0965 95.6087 17.5556C95.841 17.0148 96.1809 16.5252 96.6088 16.1158C97.0367 15.7064 97.5438 15.3855 98.0998 15.1721C98.6558 14.9586 99.2502 14.857 99.8469 14.8731C101.004 14.9129 102.099 15.3927 102.903 16.2113C103.707 17.0298 104.157 18.1234 104.158 19.2615C104.159 20.3997 103.71 21.4936 102.907 22.313C102.103 23.1323 101.008 23.6132 99.8516 23.6541" fill="#FF7A59"/>
</svg>
