<?xml version="1.0" encoding="UTF-8"?>
<svg xmlns="http://www.w3.org/2000/svg" xmlns:xlink="http://www.w3.org/1999/xlink" width="30px" height="21px" viewBox="0 0 30 21" version="1.1">
<g id="surface1">
<path style=" stroke:none;fill-rule:nonzero;fill:rgb(5.098039%,61.568627%,85.490196%);fill-opacity:1;" d="M 12.5 2.289062 C 13.460938 1.28125 14.796875 0.65625 16.277344 0.65625 C 18.246094 0.65625 19.964844 1.761719 20.878906 3.398438 C 21.675781 3.042969 22.554688 2.839844 23.476562 2.839844 C 27.03125 2.839844 29.90625 5.761719 29.90625 9.367188 C 29.90625 12.972656 27.027344 15.894531 23.476562 15.894531 C 23.042969 15.894531 22.621094 15.851562 22.214844 15.765625 C 21.40625 17.210938 19.871094 18.1875 18.109375 18.1875 C 17.375 18.1875 16.675781 18.015625 16.054688 17.710938 C 15.242188 19.644531 13.335938 21 11.121094 21 C 8.910156 21 6.847656 19.53125 6.089844 17.46875 C 5.761719 17.539062 5.417969 17.578125 5.066406 17.578125 C 2.320312 17.578125 0.0898438 15.3125 0.0898438 12.519531 C 0.0898438 10.644531 1.09375 9.011719 2.578125 8.132812 C 2.273438 7.425781 2.101562 6.640625 2.101562 5.820312 C 2.101562 2.605469 4.695312 0 7.894531 0 C 9.773438 0 11.441406 0.898438 12.5 2.289062 Z M 12.5 2.289062 "/>
<path style=" stroke:none;fill-rule:nonzero;fill:rgb(100%,100%,100%);fill-opacity:1;" d="M 4.410156 10.890625 C 4.390625 10.941406 4.417969 10.949219 4.425781 10.960938 C 4.480469 11 4.539062 11.027344 4.59375 11.0625 C 4.898438 11.226562 5.183594 11.273438 5.484375 11.273438 C 6.097656 11.273438 6.476562 10.945312 6.476562 10.421875 L 6.476562 10.410156 C 6.476562 9.925781 6.046875 9.75 5.644531 9.621094 L 5.59375 9.605469 C 5.289062 9.503906 5.027344 9.421875 5.027344 9.21875 L 5.027344 9.207031 C 5.027344 9.035156 5.179688 8.910156 5.417969 8.910156 C 5.683594 8.910156 5.996094 8.996094 6.195312 9.109375 C 6.195312 9.109375 6.253906 9.148438 6.277344 9.089844 C 6.289062 9.054688 6.390625 8.78125 6.402344 8.75 C 6.414062 8.71875 6.390625 8.695312 6.371094 8.683594 C 6.140625 8.542969 5.824219 8.445312 5.496094 8.445312 L 5.433594 8.445312 C 4.871094 8.445312 4.480469 8.789062 4.480469 9.273438 L 4.480469 9.28125 C 4.480469 9.796875 4.910156 9.960938 5.316406 10.078125 L 5.378906 10.101562 C 5.675781 10.191406 5.929688 10.269531 5.929688 10.476562 L 5.929688 10.488281 C 5.929688 10.675781 5.761719 10.816406 5.496094 10.816406 C 5.394531 10.816406 5.0625 10.816406 4.707031 10.589844 C 4.667969 10.5625 4.640625 10.546875 4.609375 10.527344 C 4.589844 10.515625 4.546875 10.496094 4.527344 10.550781 L 4.40625 10.890625 Z M 4.410156 10.890625 "/>
<path style=" stroke:none;fill-rule:nonzero;fill:rgb(100%,100%,100%);fill-opacity:1;" d="M 13.363281 10.890625 C 13.34375 10.941406 13.371094 10.949219 13.375 10.960938 C 13.429688 11 13.488281 11.027344 13.546875 11.0625 C 13.847656 11.226562 14.136719 11.273438 14.4375 11.273438 C 15.050781 11.273438 15.425781 10.945312 15.425781 10.421875 L 15.425781 10.410156 C 15.425781 9.925781 15 9.75 14.59375 9.621094 L 14.542969 9.605469 C 14.238281 9.503906 13.980469 9.421875 13.980469 9.21875 L 13.980469 9.207031 C 13.980469 9.035156 14.132812 8.910156 14.371094 8.910156 C 14.636719 8.910156 14.949219 8.996094 15.148438 9.109375 C 15.148438 9.109375 15.207031 9.148438 15.226562 9.089844 C 15.242188 9.054688 15.34375 8.78125 15.351562 8.75 C 15.363281 8.71875 15.34375 8.695312 15.324219 8.683594 C 15.089844 8.542969 14.773438 8.445312 14.445312 8.445312 L 14.382812 8.445312 C 13.824219 8.445312 13.429688 8.789062 13.429688 9.273438 L 13.429688 9.28125 C 13.429688 9.796875 13.863281 9.960938 14.265625 10.078125 L 14.332031 10.101562 C 14.625 10.191406 14.878906 10.269531 14.878906 10.476562 L 14.878906 10.488281 C 14.878906 10.675781 14.714844 10.816406 14.449219 10.816406 C 14.34375 10.816406 14.015625 10.816406 13.660156 10.589844 C 13.617188 10.5625 13.589844 10.546875 13.558594 10.527344 C 13.550781 10.519531 13.496094 10.5 13.476562 10.550781 L 13.355469 10.890625 Z M 13.363281 10.890625 "/>
<path style=" stroke:none;fill-rule:nonzero;fill:rgb(100%,100%,100%);fill-opacity:1;" d="M 19.984375 9.304688 C 19.9375 9.136719 19.859375 8.984375 19.753906 8.859375 C 19.648438 8.734375 19.519531 8.632812 19.363281 8.5625 C 19.207031 8.488281 19.023438 8.449219 18.816406 8.449219 C 18.605469 8.449219 18.425781 8.484375 18.265625 8.5625 C 18.109375 8.632812 17.980469 8.734375 17.875 8.859375 C 17.773438 8.984375 17.695312 9.136719 17.644531 9.304688 C 17.59375 9.476562 17.570312 9.660156 17.570312 9.855469 C 17.570312 10.054688 17.59375 10.242188 17.644531 10.40625 C 17.695312 10.578125 17.773438 10.730469 17.875 10.855469 C 17.980469 10.980469 18.113281 11.082031 18.265625 11.152344 C 18.425781 11.226562 18.605469 11.261719 18.816406 11.261719 C 19.023438 11.261719 19.207031 11.226562 19.363281 11.152344 C 19.519531 11.082031 19.648438 10.980469 19.753906 10.855469 C 19.859375 10.730469 19.9375 10.578125 19.984375 10.40625 C 20.035156 10.238281 20.0625 10.054688 20.0625 9.855469 C 20.0625 9.660156 20.035156 9.472656 19.984375 9.304688 M 19.472656 9.855469 C 19.472656 10.15625 19.417969 10.386719 19.3125 10.554688 C 19.203125 10.71875 19.039062 10.796875 18.816406 10.796875 C 18.589844 10.796875 18.425781 10.71875 18.320312 10.554688 C 18.210938 10.386719 18.15625 10.15625 18.15625 9.855469 C 18.15625 9.558594 18.210938 9.324219 18.316406 9.160156 C 18.425781 8.996094 18.582031 8.917969 18.8125 8.917969 C 19.039062 8.917969 19.199219 8.996094 19.308594 9.160156 C 19.414062 9.324219 19.46875 9.558594 19.46875 9.855469 "/>
<path style=" stroke:none;fill-rule:evenodd;fill:rgb(100%,100%,100%);fill-opacity:1;" d="M 24.179688 10.71875 C 24.164062 10.671875 24.113281 10.691406 24.113281 10.691406 C 24.039062 10.71875 23.960938 10.746094 23.875 10.757812 C 23.792969 10.773438 23.695312 10.777344 23.59375 10.777344 C 23.347656 10.777344 23.152344 10.703125 23.011719 10.558594 C 22.871094 10.410156 22.789062 10.175781 22.792969 9.855469 C 22.792969 9.566406 22.863281 9.347656 22.988281 9.179688 C 23.113281 9.011719 23.300781 8.929688 23.554688 8.929688 C 23.769531 8.929688 23.929688 8.953125 24.097656 9.011719 C 24.097656 9.011719 24.136719 9.027344 24.15625 8.972656 C 24.203125 8.847656 24.234375 8.761719 24.285156 8.625 C 24.296875 8.582031 24.265625 8.566406 24.25 8.5625 C 24.1875 8.539062 24.03125 8.496094 23.910156 8.480469 C 23.800781 8.460938 23.675781 8.453125 23.53125 8.453125 C 23.316406 8.453125 23.125 8.488281 22.960938 8.5625 C 22.796875 8.636719 22.660156 8.738281 22.550781 8.863281 C 22.4375 8.988281 22.355469 9.136719 22.300781 9.308594 C 22.246094 9.480469 22.214844 9.664062 22.214844 9.863281 C 22.214844 10.289062 22.332031 10.632812 22.554688 10.886719 C 22.78125 11.140625 23.121094 11.269531 23.5625 11.269531 C 23.824219 11.269531 24.089844 11.214844 24.285156 11.136719 C 24.285156 11.136719 24.324219 11.121094 24.304688 11.074219 L 24.183594 10.726562 Z M 24.179688 10.71875 "/>
<path style=" stroke:none;fill-rule:evenodd;fill:rgb(100%,100%,100%);fill-opacity:1;" d="M 26.792969 9.210938 C 26.75 9.046875 26.640625 8.878906 26.570312 8.804688 C 26.457031 8.683594 26.351562 8.601562 26.238281 8.550781 C 26.101562 8.488281 25.929688 8.449219 25.746094 8.449219 C 25.53125 8.449219 25.332031 8.484375 25.175781 8.5625 C 25.015625 8.636719 24.878906 8.738281 24.777344 8.867188 C 24.671875 8.992188 24.59375 9.144531 24.542969 9.320312 C 24.492188 9.488281 24.464844 9.675781 24.464844 9.875 C 24.464844 10.070312 24.492188 10.261719 24.542969 10.429688 C 24.597656 10.597656 24.679688 10.746094 24.796875 10.871094 C 24.910156 10.996094 25.054688 11.09375 25.230469 11.160156 C 25.402344 11.226562 25.613281 11.261719 25.855469 11.261719 C 26.355469 11.261719 26.617188 11.144531 26.726562 11.085938 C 26.746094 11.078125 26.761719 11.058594 26.742188 11.003906 L 26.628906 10.6875 C 26.613281 10.640625 26.5625 10.65625 26.5625 10.65625 C 26.4375 10.703125 26.261719 10.785156 25.851562 10.785156 C 25.585938 10.785156 25.386719 10.707031 25.261719 10.582031 C 25.136719 10.453125 25.074219 10.265625 25.058594 10.003906 L 26.789062 10.003906 C 26.789062 10.003906 26.832031 10.003906 26.835938 9.960938 C 26.835938 9.941406 26.894531 9.605469 26.785156 9.214844 Z M 25.074219 9.574219 C 25.09375 9.410156 25.140625 9.273438 25.214844 9.164062 C 25.316406 9 25.480469 8.910156 25.707031 8.910156 C 25.9375 8.910156 26.082031 9 26.191406 9.164062 C 26.261719 9.273438 26.292969 9.414062 26.304688 9.574219 Z M 25.074219 9.574219 "/>
<path style=" stroke:none;fill-rule:evenodd;fill:rgb(100%,100%,100%);fill-opacity:1;" d="M 12.953125 9.210938 C 12.910156 9.046875 12.800781 8.878906 12.730469 8.804688 C 12.621094 8.683594 12.511719 8.601562 12.402344 8.550781 C 12.261719 8.488281 12.089844 8.449219 11.90625 8.449219 C 11.691406 8.449219 11.496094 8.484375 11.335938 8.5625 C 11.175781 8.636719 11.042969 8.738281 10.9375 8.867188 C 10.832031 8.992188 10.753906 9.144531 10.703125 9.320312 C 10.652344 9.488281 10.628906 9.675781 10.628906 9.875 C 10.628906 10.070312 10.652344 10.261719 10.707031 10.429688 C 10.757812 10.597656 10.84375 10.746094 10.957031 10.871094 C 11.070312 10.996094 11.21875 11.09375 11.390625 11.160156 C 11.5625 11.226562 11.773438 11.261719 12.015625 11.261719 C 12.515625 11.261719 12.78125 11.144531 12.886719 11.085938 C 12.90625 11.078125 12.921875 11.058594 12.898438 11.003906 L 12.785156 10.6875 C 12.769531 10.640625 12.71875 10.65625 12.71875 10.65625 C 12.597656 10.703125 12.421875 10.785156 12.011719 10.785156 C 11.742188 10.785156 11.542969 10.707031 11.417969 10.582031 C 11.292969 10.453125 11.230469 10.265625 11.21875 10.003906 L 12.945312 10.003906 C 12.945312 10.003906 12.992188 10.003906 12.996094 9.960938 C 12.996094 9.941406 13.054688 9.605469 12.941406 9.214844 Z M 11.234375 9.574219 C 11.257812 9.410156 11.300781 9.273438 11.375 9.164062 C 11.480469 9 11.640625 8.910156 11.871094 8.910156 C 12.097656 8.910156 12.246094 9 12.355469 9.164062 C 12.425781 9.273438 12.457031 9.414062 12.46875 9.574219 Z M 11.234375 9.574219 "/>
<path style=" stroke:none;fill-rule:nonzero;fill:rgb(100%,100%,100%);fill-opacity:1;" d="M 8.183594 9.488281 C 8.113281 9.484375 8.023438 9.484375 7.914062 9.484375 C 7.765625 9.484375 7.625 9.503906 7.488281 9.539062 C 7.351562 9.574219 7.230469 9.628906 7.125 9.707031 C 7.019531 9.78125 6.9375 9.875 6.875 9.992188 C 6.8125 10.105469 6.78125 10.242188 6.78125 10.390625 C 6.78125 10.542969 6.808594 10.679688 6.859375 10.789062 C 6.914062 10.898438 6.988281 10.988281 7.085938 11.0625 C 7.179688 11.128906 7.300781 11.183594 7.4375 11.214844 C 7.574219 11.246094 7.726562 11.261719 7.894531 11.261719 C 8.070312 11.261719 8.25 11.246094 8.417969 11.21875 C 8.589844 11.1875 8.796875 11.144531 8.851562 11.132812 C 8.910156 11.121094 8.972656 11.105469 8.972656 11.105469 C 9.015625 11.09375 9.011719 11.046875 9.011719 11.046875 L 9.011719 9.457031 C 9.011719 9.109375 8.917969 8.847656 8.734375 8.6875 C 8.554688 8.527344 8.289062 8.449219 7.945312 8.449219 C 7.8125 8.449219 7.605469 8.464844 7.480469 8.492188 C 7.480469 8.492188 7.101562 8.5625 6.949219 8.6875 C 6.949219 8.6875 6.917969 8.707031 6.933594 8.757812 L 7.054688 9.089844 C 7.074219 9.132812 7.113281 9.117188 7.113281 9.117188 C 7.113281 9.117188 7.125 9.113281 7.140625 9.105469 C 7.472656 8.925781 7.894531 8.929688 7.894531 8.929688 C 8.082031 8.929688 8.222656 8.96875 8.320312 9.039062 C 8.417969 9.113281 8.464844 9.222656 8.464844 9.453125 L 8.464844 9.527344 C 8.320312 9.503906 8.179688 9.492188 8.179688 9.492188 Z M 7.496094 10.710938 C 7.429688 10.652344 7.417969 10.640625 7.394531 10.609375 C 7.363281 10.554688 7.34375 10.480469 7.34375 10.382812 C 7.34375 10.226562 7.390625 10.121094 7.496094 10.042969 C 7.496094 10.042969 7.648438 9.914062 8 9.917969 C 8.246094 9.917969 8.46875 9.957031 8.46875 9.957031 L 8.46875 10.75 C 8.46875 10.75 8.25 10.796875 8.003906 10.8125 C 7.648438 10.832031 7.492188 10.710938 7.496094 10.710938 Z M 7.496094 10.710938 "/>
<path style=" stroke:none;fill-rule:evenodd;fill:rgb(100%,100%,100%);fill-opacity:1;" d="M 22.121094 8.59375 C 22.136719 8.554688 22.109375 8.535156 22.09375 8.53125 C 22.066406 8.519531 21.917969 8.488281 21.804688 8.480469 C 21.585938 8.46875 21.464844 8.503906 21.359375 8.554688 C 21.25 8.601562 21.132812 8.683594 21.066406 8.769531 L 21.066406 8.558594 C 21.066406 8.527344 21.046875 8.503906 21.015625 8.503906 L 20.574219 8.503906 C 20.542969 8.503906 20.523438 8.527344 20.523438 8.558594 L 20.523438 11.152344 C 20.523438 11.183594 20.546875 11.207031 20.574219 11.207031 L 21.03125 11.207031 C 21.058594 11.207031 21.082031 11.183594 21.082031 11.152344 L 21.082031 9.855469 C 21.082031 9.683594 21.101562 9.507812 21.140625 9.402344 C 21.175781 9.292969 21.226562 9.207031 21.289062 9.144531 C 21.351562 9.082031 21.425781 9.039062 21.503906 9.015625 C 21.582031 8.992188 21.671875 8.984375 21.734375 8.984375 C 21.824219 8.984375 21.921875 9.007812 21.921875 9.007812 C 21.957031 9.011719 21.976562 8.992188 21.984375 8.960938 C 22.015625 8.882812 22.097656 8.644531 22.113281 8.597656 Z M 22.121094 8.59375 "/>
<path style=" stroke:none;fill-rule:evenodd;fill:rgb(100%,100%,100%);fill-opacity:1;" d="M 17.859375 7.394531 C 17.804688 7.375 17.753906 7.363281 17.691406 7.351562 C 17.625 7.339844 17.542969 7.332031 17.457031 7.332031 C 17.140625 7.332031 16.898438 7.421875 16.726562 7.597656 C 16.550781 7.773438 16.433594 8.039062 16.378906 8.386719 L 16.359375 8.503906 L 15.96875 8.503906 C 15.96875 8.503906 15.917969 8.503906 15.910156 8.554688 L 15.84375 8.914062 C 15.839844 8.953125 15.855469 8.972656 15.898438 8.972656 L 16.28125 8.972656 L 15.894531 11.144531 C 15.863281 11.320312 15.828125 11.464844 15.789062 11.578125 C 15.75 11.683594 15.714844 11.761719 15.667969 11.824219 C 15.621094 11.878906 15.582031 11.921875 15.511719 11.945312 C 15.453125 11.964844 15.386719 11.972656 15.308594 11.972656 C 15.265625 11.972656 15.210938 11.964844 15.167969 11.957031 C 15.128906 11.949219 15.109375 11.941406 15.074219 11.925781 C 15.074219 11.925781 15.03125 11.910156 15.011719 11.957031 C 15 11.992188 14.894531 12.273438 14.886719 12.3125 C 14.871094 12.34375 14.890625 12.375 14.910156 12.378906 C 14.964844 12.398438 15 12.410156 15.070312 12.425781 C 15.164062 12.449219 15.246094 12.449219 15.324219 12.449219 C 15.484375 12.449219 15.625 12.425781 15.746094 12.382812 C 15.867188 12.339844 15.972656 12.261719 16.066406 12.160156 C 16.167969 12.046875 16.230469 11.929688 16.292969 11.769531 C 16.351562 11.613281 16.402344 11.414062 16.445312 11.1875 L 16.832031 8.96875 L 17.402344 8.96875 C 17.402344 8.96875 17.453125 8.96875 17.460938 8.917969 L 17.527344 8.558594 C 17.53125 8.519531 17.515625 8.5 17.472656 8.5 L 16.921875 8.5 C 16.921875 8.5 16.949219 8.296875 17.011719 8.109375 C 17.039062 8.027344 17.089844 7.96875 17.132812 7.921875 C 17.175781 7.878906 17.222656 7.847656 17.277344 7.828125 C 17.332031 7.8125 17.394531 7.804688 17.460938 7.804688 C 17.515625 7.804688 17.566406 7.808594 17.605469 7.816406 C 17.65625 7.824219 17.679688 7.832031 17.695312 7.839844 C 17.75 7.855469 17.757812 7.839844 17.769531 7.8125 L 17.902344 7.449219 C 17.914062 7.410156 17.882812 7.394531 17.871094 7.390625 Z M 17.859375 7.394531 "/>
<path style=" stroke:none;fill-rule:evenodd;fill:rgb(100%,100%,100%);fill-opacity:1;" d="M 10.140625 11.152344 C 10.140625 11.183594 10.121094 11.207031 10.09375 11.207031 L 9.632812 11.207031 C 9.601562 11.207031 9.582031 11.183594 9.582031 11.152344 L 9.582031 7.441406 C 9.582031 7.414062 9.601562 7.390625 9.632812 7.390625 L 10.09375 7.390625 C 10.121094 7.390625 10.140625 7.414062 10.140625 7.441406 Z M 10.140625 11.152344 "/>
</g>
</svg>
