<svg width="82" height="56" viewBox="0 0 82 56" fill="none" xmlns="http://www.w3.org/2000/svg">
<mask id="mask0_642_3931" style="mask-type:luminance" maskUnits="userSpaceOnUse" x="0" y="0" width="82" height="56">
<path d="M81.8173 0H0.185303V56H81.8173V0Z" fill="white"/>
</mask>
<g mask="url(#mask0_642_3931)">
<mask id="mask1_642_3931" style="mask-type:alpha" maskUnits="userSpaceOnUse" x="0" y="0" width="82" height="56">
<path d="M0.203369 0.146484H81.5362V55.8531H0.203369V0.146484Z" fill="white"/>
</mask>
<g mask="url(#mask1_642_3931)">
<path fill-rule="evenodd" clip-rule="evenodd" d="M33.9746 6.2448C36.5999 3.56501 40.254 1.90554 44.2906 1.90554C49.6729 1.90554 54.3379 4.83748 56.8494 9.20606C59.079 8.22875 61.4941 7.72422 63.936 7.72545C73.6243 7.72545 81.4885 15.4951 81.4885 25.0825C81.4885 34.67 73.6243 42.4396 63.936 42.4396C62.7521 42.4396 61.598 42.3227 60.4677 42.1024C58.2697 45.9431 54.0688 48.5526 49.2844 48.5526C47.3365 48.5563 45.4135 48.123 43.6626 47.2863C41.435 52.417 36.2471 56.0231 30.2069 56.0231C23.8976 56.0231 18.5452 52.1239 16.482 46.6408C15.5637 46.8309 14.6277 46.9266 13.6892 46.9261C6.18383 46.9261 0.11377 40.8863 0.11377 33.4684C0.11377 28.4841 2.84679 24.1449 6.90148 21.7993C6.04126 19.8563 5.5985 17.7604 5.60077 15.6423C5.60077 7.081 12.6875 0.161621 21.4188 0.161621C26.532 0.161621 31.107 2.55115 33.9776 6.26005" fill="#00A1E0"/>
<path fill-rule="evenodd" clip-rule="evenodd" d="M11.9667 29.1141C11.9156 29.2449 11.985 29.2721 12.0014 29.2953C12.1542 29.4038 12.3094 29.4824 12.4649 29.5706C13.2962 30.0016 14.0796 30.1277 14.8989 30.1277C16.5674 30.1277 17.605 29.2569 17.605 27.8554V27.8279C17.605 26.5319 16.4329 26.0599 15.3385 25.7227L15.1952 25.6773C14.3669 25.414 13.6523 25.1847 13.6523 24.6511V24.6238C13.6523 24.1664 14.0709 23.8293 14.7168 23.8293C15.4345 23.8293 16.2897 24.0635 16.8368 24.36C16.8368 24.36 16.9989 24.4626 17.0578 24.3092C17.0898 24.2262 17.3688 23.4942 17.3987 23.412C17.4304 23.3262 17.3748 23.2614 17.3177 23.2279C16.6897 22.8527 15.8226 22.5975 14.9255 22.5975L14.759 22.5982C13.231 22.5982 12.1635 23.5041 12.1635 24.8V24.8279C12.1635 26.1942 13.3416 26.6398 14.442 26.9477L14.619 27.0016C15.4204 27.2432 16.1141 27.4532 16.1141 28.0044V28.0319C16.1141 28.5391 15.6626 28.9174 14.939 28.9174C14.6576 28.9174 13.7608 28.9127 12.789 28.3104C12.6715 28.2433 12.6046 28.1949 12.514 28.1407C12.4661 28.1122 12.3465 28.0609 12.2945 28.2146L11.9655 29.1117L11.9667 29.1141ZM36.3953 29.1117C36.3442 29.2425 36.4136 29.2698 36.4306 29.2929C36.5828 29.4014 36.7386 29.48 36.8941 29.5682C37.7254 29.9992 38.5088 30.1253 39.3281 30.1253C40.9966 30.1253 42.0341 29.2545 42.0341 27.853V27.8255C42.0341 26.5296 40.8651 26.0575 39.7677 25.7204L39.6244 25.6749C38.7961 25.4116 38.0815 25.1824 38.0815 24.6487V24.6215C38.0815 24.1641 38.5001 23.8269 39.146 23.8269C39.8636 23.8269 40.7159 24.0612 41.266 24.3576C41.266 24.3576 41.4279 24.4602 41.4873 24.3069C41.519 24.2239 41.7984 23.4918 41.8252 23.4097C41.8573 23.3238 41.8013 23.259 41.7444 23.2256C41.1165 22.8503 40.2494 22.5952 39.3523 22.5952L39.1855 22.5958C37.6575 22.5958 36.59 23.5018 36.59 24.7977V24.8255C36.59 26.1918 37.7681 26.6375 38.8685 26.9454L39.0452 26.9993C39.8496 27.2409 40.5403 27.4508 40.5403 28.002V28.0295C40.5403 28.5368 40.0888 28.915 39.3652 28.915C39.0832 28.915 38.184 28.9103 37.2152 28.3081C37.0977 28.241 37.0289 28.1946 36.9399 28.1384C36.9097 28.1196 36.7688 28.0656 36.7206 28.2122L36.3917 29.1094L36.3953 29.1117ZM53.0769 26.3651C53.0769 27.1567 52.9261 27.7812 52.6314 28.2239C52.3372 28.6608 51.893 28.8749 51.2737 28.8749C50.6548 28.8749 50.2122 28.6626 49.9221 28.2269C49.63 27.7871 49.4829 27.1597 49.4829 26.368C49.4829 25.5764 49.6312 24.9549 49.9221 24.518C50.2118 24.084 50.6519 23.8759 51.2737 23.8759C51.8959 23.8759 52.3385 24.0861 52.6314 24.518C52.9281 24.9549 53.0769 25.5764 53.0769 26.368V26.3651ZM54.4705 24.8991C54.3333 24.4447 54.1206 24.0459 53.8363 23.7117C53.552 23.3775 53.1935 23.1077 52.7658 22.9142C52.3414 22.7192 51.8391 22.621 51.2708 22.621C50.7026 22.621 50.2036 22.7198 49.7759 22.9142C49.351 23.1089 48.9892 23.3775 48.7053 23.7117C48.4218 24.0459 48.2088 24.4447 48.0716 24.8991C47.9352 25.3507 47.8664 25.8432 47.8664 26.368C47.8664 26.8929 47.9352 27.3854 48.0716 27.8369C48.208 28.2914 48.4214 28.6901 48.7053 29.0244C48.9897 29.3586 49.351 29.6254 49.7759 29.816C50.2036 30.006 50.7059 30.1027 51.2708 30.1027C51.8362 30.1027 52.3385 30.006 52.7629 29.816C53.1877 29.626 53.5495 29.3586 53.8334 29.0244C54.1173 28.6901 54.33 28.2914 54.4676 27.8369C54.6032 27.3854 54.6724 26.8929 54.6724 26.368C54.6724 25.8462 54.6032 25.3507 54.4676 24.8991H54.4705ZM65.92 28.652C65.8738 28.5192 65.742 28.5694 65.742 28.5694C65.5392 28.6453 65.3233 28.7156 65.093 28.7508C64.861 28.7866 64.6026 28.8045 64.3307 28.8045C63.6578 28.8045 63.1196 28.6077 62.7368 28.2181C62.3511 27.8281 62.1356 27.2007 62.1385 26.3504C62.141 25.5764 62.3318 24.9959 62.6738 24.5502C63.0117 24.1104 63.5321 23.8817 64.2198 23.8817C64.7938 23.8817 65.2335 23.9471 65.6942 24.0885C65.6942 24.0885 65.8034 24.1351 65.8553 23.994C65.9777 23.6627 66.0679 23.4252 66.1994 23.0617C66.2364 22.9576 66.1454 22.9136 66.1124 22.901C65.9319 22.8318 65.5054 22.7184 65.1824 22.6706C64.8804 22.6254 64.5305 22.602 64.1358 22.602C63.5498 22.602 63.0294 22.7002 62.5839 22.8949C62.1385 23.0892 61.7615 23.3581 61.4627 23.6924C61.1636 24.0266 60.9365 24.4254 60.7836 24.8798C60.6328 25.3313 60.5566 25.8268 60.5566 26.3516C60.5566 27.4834 60.8677 28.401 61.4837 29.0725C62.0994 29.7468 63.0265 30.0869 64.2346 30.0869C64.9492 30.0869 65.6818 29.9453 66.208 29.7409C66.208 29.7409 66.3086 29.6934 66.2649 29.5785L65.9208 28.652H65.92ZM68.3581 25.6028C68.4245 25.163 68.5477 24.7965 68.7405 24.5121C69.0298 24.0782 69.4703 23.8407 70.0892 23.8407C70.7081 23.8407 71.1177 24.0794 71.4111 24.5121C71.6052 24.798 71.6901 25.1777 71.7218 25.6028L68.3429 25.6022L68.3581 25.6028ZM73.0527 24.6353C72.9337 24.1984 72.6399 23.7557 72.4487 23.5534C72.1437 23.2338 71.8475 23.008 71.5516 22.8849C71.1243 22.7067 70.6644 22.6152 70.2001 22.616C69.6108 22.616 69.0755 22.7137 68.642 22.9122C68.2086 23.1121 67.8435 23.3842 67.5567 23.7243C67.2699 24.0644 67.0544 24.4661 66.9168 24.9264C66.7791 25.3809 66.7099 25.8793 66.7099 26.4012C66.7099 26.9348 66.782 27.4303 66.9238 27.8789C67.0667 28.3304 67.2975 28.7262 67.6082 29.0546C67.9193 29.3859 68.3169 29.6439 68.7953 29.8257C69.2709 30.006 69.8481 30.0995 70.5087 30.0975C71.8722 30.093 72.59 29.7955 72.883 29.6342C72.9353 29.6055 72.9847 29.5559 72.9229 29.4132L72.6151 28.5658C72.5677 28.4394 72.4375 28.4852 72.4375 28.4852C72.0996 28.6089 71.6212 28.8312 70.5 28.8282C69.7674 28.827 69.2259 28.6151 68.8852 28.2829C68.5382 27.9428 68.3647 27.4473 68.3379 26.7436L73.0622 26.7471C73.0622 26.7471 73.1867 26.746 73.1998 26.6269C73.2048 26.5777 73.3614 25.677 73.0589 24.6361L73.0527 24.6353ZM30.592 25.6028C30.6587 25.163 30.7819 24.7965 30.9747 24.5121C31.2642 24.0782 31.7043 23.8407 32.3233 23.8407C32.9423 23.8407 33.3519 24.0794 33.6449 24.5121C33.839 24.798 33.9239 25.1777 33.9559 25.6028L30.577 25.6022L30.592 25.6028ZM35.2865 24.6353C35.1682 24.1984 34.8739 23.7557 34.6825 23.5534C34.3775 23.2338 34.0815 23.008 33.7855 22.8849C33.3581 22.7067 32.8984 22.6152 32.4339 22.616C31.8449 22.616 31.3096 22.7137 30.8761 22.9122C30.4425 23.1121 30.0777 23.3842 29.7906 23.7243C29.5045 24.0644 29.2883 24.4661 29.1507 24.9264C29.0135 25.3809 28.9444 25.8793 28.9444 26.4012C28.9444 26.9348 29.0159 27.4303 29.1585 27.8789C29.3014 28.3304 29.5322 28.7262 29.8403 29.0546C30.1512 29.3859 30.5489 29.6439 31.0274 29.8257C31.5028 30.006 32.0769 30.0995 32.7407 30.0975C34.1043 30.093 34.8219 29.7955 35.1149 29.6342C35.167 29.6055 35.2166 29.5559 35.1547 29.4132L34.8467 28.5658C34.7992 28.4394 34.6688 28.4852 34.6688 28.4852C34.3309 28.6089 33.8525 28.8312 32.7312 28.8282C32.0016 28.827 31.4574 28.6151 31.1165 28.2829C30.7696 27.9428 30.5962 27.4473 30.5692 26.7436L35.2938 26.7471C35.2938 26.7471 35.4181 26.746 35.431 26.6269C35.4361 26.5777 35.5927 25.677 35.2898 24.6361L35.2865 24.6353ZM20.3955 28.6227C20.2104 28.4779 20.1847 28.4424 20.1233 28.3483C20.0298 28.2067 19.9819 28.0052 19.9819 27.7472C19.9819 27.3426 20.1195 27.0494 20.4035 26.853C20.4005 26.8535 20.8102 26.507 21.773 26.5187C22.2016 26.5263 22.6292 26.562 23.0528 26.6257V28.728H23.0534C23.0534 28.728 22.4554 28.8543 21.7796 28.8942C20.8198 28.9508 20.3952 28.6233 20.3981 28.6242L20.3955 28.6227ZM22.2733 25.3682C22.0819 25.3545 21.8337 25.3477 21.5377 25.3477C21.134 25.3477 20.7423 25.397 20.3775 25.4937C20.0097 25.5911 19.6778 25.7418 19.3938 25.9423C19.1089 26.1416 18.8746 26.4024 18.709 26.7046C18.5419 27.0095 18.4566 27.3672 18.4566 27.7719C18.4566 28.1823 18.5293 28.5371 18.6728 28.8274C18.8135 29.1153 19.0252 29.3642 19.2888 29.5515C19.551 29.7386 19.8749 29.877 20.2487 29.9591C20.6194 30.042 21.0381 30.084 21.4986 30.084C21.983 30.084 22.4644 30.0441 22.9308 29.967C23.3281 29.8998 23.7239 29.8243 24.1179 29.7407C24.2752 29.7052 24.4499 29.6585 24.4499 29.6585C24.5665 29.6295 24.5575 29.5073 24.5575 29.5073L24.5548 25.2853C24.5548 24.3588 24.3024 23.6698 23.8043 23.2447C23.3079 22.8195 22.5813 22.6055 21.6394 22.6055C21.2866 22.6055 20.7154 22.6524 20.3745 22.7195C20.3745 22.7195 19.3459 22.9154 18.9213 23.2414C18.9213 23.2414 18.828 23.2977 18.8788 23.4252L19.2138 24.3049C19.2553 24.4189 19.3687 24.3799 19.3687 24.3799C19.3687 24.3799 19.4042 24.3661 19.4461 24.3418C20.3521 23.858 21.5003 23.8727 21.5003 23.8727C22.0087 23.8727 22.4034 23.9738 22.6665 24.1717C22.924 24.3655 23.0552 24.6584 23.0552 25.2741V25.4697C22.6515 25.4122 22.2778 25.3791 22.2778 25.3791L22.2733 25.3682ZM60.2488 22.9846C60.2554 22.9691 60.2591 22.9525 60.2591 22.9356C60.2591 22.9188 60.2558 22.9021 60.2492 22.8866C60.2426 22.871 60.2327 22.8569 60.2204 22.8452C60.2084 22.8334 60.1936 22.8242 60.1779 22.818C60.0972 22.7881 59.6962 22.7052 59.3884 22.6864C58.7963 22.65 58.4675 22.748 58.1712 22.8782C57.879 23.0074 57.5552 23.2153 57.3759 23.4557L57.3755 22.8928C57.3755 22.8154 57.3195 22.753 57.2399 22.753H56.0318C55.9535 22.753 55.8966 22.8154 55.8966 22.8928V29.7829C55.8966 29.8201 55.9119 29.8558 55.9386 29.8821C55.9654 29.9084 56.0021 29.9232 56.04 29.9233H57.2778C57.3158 29.9232 57.352 29.9084 57.3788 29.8821C57.4056 29.8557 57.4208 29.8201 57.4208 29.7829V26.3232C57.4208 25.8599 57.4727 25.3996 57.5766 25.1094C57.6788 24.8223 57.8181 24.5934 57.9891 24.4292C58.1526 24.2706 58.3525 24.1529 58.5721 24.0861C58.7786 24.0281 58.9916 23.9987 59.2063 23.9987C59.4531 23.9987 59.7234 24.0609 59.7234 24.0609C59.8145 24.0709 59.8652 24.0163 59.8957 23.936C59.9768 23.7246 60.2068 23.0916 60.2517 22.9655" fill="#FFFFFE"/>
<path fill-rule="evenodd" clip-rule="evenodd" d="M48.6864 19.8044C48.5335 19.759 48.3777 19.7228 48.2203 19.6959C48.0085 19.6612 47.7939 19.6449 47.5792 19.6472C46.7262 19.6472 46.0537 19.8835 45.5815 20.3503C45.1126 20.8135 44.7936 21.5192 44.6338 22.4478L44.5757 22.7612H43.5051C43.5051 22.7612 43.3745 22.7559 43.3469 22.8958L43.171 23.8574C43.159 23.9495 43.1994 24.007 43.3246 24.0064H44.3672L43.3094 29.7949C43.2266 30.2611 43.1318 30.6446 43.0271 30.9351C42.9233 31.2219 42.8223 31.4368 42.6979 31.5928C42.5776 31.7438 42.4634 31.8549 42.2661 31.9197C42.1037 31.9734 41.9162 31.998 41.7114 31.998C41.5969 31.998 41.4452 31.9792 41.3332 31.9572C41.2207 31.9355 41.1626 31.9109 41.0786 31.8763C41.0786 31.8763 40.9563 31.8306 40.9081 31.9508C40.8689 32.049 40.5911 32.7981 40.5582 32.8907C40.5247 32.9822 40.5717 33.0544 40.6309 33.0752C40.7697 33.1239 40.8728 33.1549 41.0618 33.1986C41.3245 33.2593 41.5458 33.2631 41.7526 33.2631C42.187 33.2631 42.5825 33.2033 42.9105 33.0872C43.2406 32.9702 43.5282 32.7664 43.7824 32.4906C44.0569 32.1929 44.2299 31.8813 44.3952 31.4562C44.5588 31.0348 44.698 30.5118 44.8097 29.9022L45.8724 24.0064H47.4263C47.4263 24.0064 47.5569 24.0111 47.5841 23.8718L47.7601 22.9101C47.7724 22.8181 47.7325 22.7606 47.606 22.7612H46.0982C46.1056 22.7278 46.174 22.2077 46.3471 21.718C46.4213 21.509 46.5601 21.3404 46.678 21.2246C46.788 21.1143 46.9236 21.0316 47.0728 20.9836C47.2368 20.9339 47.4078 20.9098 47.5792 20.912C47.7213 20.912 47.8606 20.9287 47.9669 20.9504C48.1128 20.9809 48.1697 20.9971 48.208 21.0082C48.3617 21.0542 48.3823 21.0097 48.4124 20.9367L48.7733 19.9656C48.8104 19.8612 48.7198 19.8172 48.6864 19.8044ZM27.6135 29.8072C27.6135 29.8846 27.5572 29.9477 27.4783 29.9477H26.2275C26.1483 29.9477 26.092 29.8846 26.092 29.8072V19.936C26.092 19.8589 26.1483 19.7964 26.2275 19.7964H27.4783C27.5572 19.7964 27.6135 19.8589 27.6135 19.936V29.8072Z" fill="#FFFFFE"/>
</g>
</g>
</svg>
