<svg width="49" height="43" viewBox="0 0 49 43" fill="none" xmlns="http://www.w3.org/2000/svg">
<path d="M38.0742 35.2885C35.3471 38.0156 31.8725 39.8726 28.0899 40.6252C24.3073 41.3778 20.3865 40.9915 16.8233 39.5156C14.446 38.5308 12.2991 37.0905 10.4971 35.2885M38.0742 7.71139C35.3471 4.98428 31.8725 3.12709 28.0899 2.37467C24.3073 1.6223 20.3865 2.00845 16.8233 3.48436C14.446 4.46906 12.2991 5.90936 10.4971 7.71139" stroke="url(#paint0_linear_404_1581)" stroke-width="3" stroke-linecap="round"/>
<path d="M23.4619 14.2629C23.8087 13.596 24.7628 13.596 25.1095 14.2629L27.1683 18.222C27.2563 18.3912 27.3944 18.5293 27.5637 18.6174L31.5228 20.6761C32.1897 21.0229 32.1897 21.977 31.5228 22.3238L27.5637 24.3825C27.3944 24.4706 27.2563 24.6087 27.1683 24.7779L25.1095 28.737C24.7628 29.4039 23.8087 29.4039 23.4619 28.737L21.4032 24.7779C21.3151 24.6087 21.177 24.4706 21.0077 24.3825L17.0486 22.3238C16.3817 21.977 16.3817 21.0229 17.0486 20.6761L21.0077 18.6174C21.177 18.5293 21.3151 18.3912 21.4032 18.222L23.4619 14.2629Z" stroke="url(#paint1_linear_404_1581)" stroke-width="3"/>
<path d="M39.6071 28.9287H42.857" stroke="url(#paint2_linear_404_1581)" stroke-width="3" stroke-linecap="round"/>
<path d="M8.96427 28.9288H5.25M39.607 13.6074H42.857" stroke="url(#paint3_linear_404_1581)" stroke-width="3" stroke-linecap="round" stroke-linejoin="round"/>
<path d="M41.4642 21.5H46.5713M7.10713 21.5H2" stroke="url(#paint4_linear_404_1581)" stroke-width="3" stroke-linecap="round"/>
<path d="M8.96427 13.6074H5.25" stroke="url(#paint5_linear_404_1581)" stroke-width="3" stroke-linecap="round" stroke-linejoin="round"/>
<defs>
<linearGradient id="paint0_linear_404_1581" x1="24.2856" y1="2" x2="24.2856" y2="41" gradientUnits="userSpaceOnUse">
<stop stop-color="#16B1E6"/>
<stop offset="1" stop-color="#00ECD2"/>
</linearGradient>
<linearGradient id="paint1_linear_404_1581" x1="24.2857" y1="13.7627" x2="24.2857" y2="29.2372" gradientUnits="userSpaceOnUse">
<stop stop-color="#16B1E6"/>
<stop offset="1" stop-color="#00ECD2"/>
</linearGradient>
<linearGradient id="paint2_linear_404_1581" x1="41.2321" y1="28.9287" x2="41.2321" y2="29.9287" gradientUnits="userSpaceOnUse">
<stop stop-color="#16B1E6"/>
<stop offset="1" stop-color="#00ECD2"/>
</linearGradient>
<linearGradient id="paint3_linear_404_1581" x1="24.0535" y1="13.6074" x2="24.0535" y2="28.9288" gradientUnits="userSpaceOnUse">
<stop stop-color="#16B1E6"/>
<stop offset="1" stop-color="#00ECD2"/>
</linearGradient>
<linearGradient id="paint4_linear_404_1581" x1="24.2856" y1="21.5" x2="24.2856" y2="22.5" gradientUnits="userSpaceOnUse">
<stop stop-color="#16B1E6"/>
<stop offset="1" stop-color="#00ECD2"/>
</linearGradient>
<linearGradient id="paint5_linear_404_1581" x1="7.10714" y1="13.6074" x2="7.10714" y2="14.6074" gradientUnits="userSpaceOnUse">
<stop stop-color="#16B1E6"/>
<stop offset="1" stop-color="#00ECD2"/>
</linearGradient>
</defs>
</svg>
