<svg width="13" height="11" viewBox="0 0 13 11" fill="none" xmlns="http://www.w3.org/2000/svg">
<path fill-rule="evenodd" clip-rule="evenodd" d="M7.58741 0.462565C7.61762 0.239947 7.46458 0.0345655 7.24562 0.00386731C7.02664 -0.0268471 6.82464 0.128743 6.79443 0.351362L5.41251 10.5374C5.38232 10.7601 5.53534 10.9654 5.75432 10.9961C5.97328 11.0268 6.17529 10.8713 6.20549 10.6486L7.58741 0.462565ZM3.74118 1.63119C3.89748 1.79011 3.89748 2.04777 3.74118 2.20668L1.01149 4.98192C0.73015 5.26796 0.73015 5.73173 1.01149 6.01778L3.74118 8.79301C3.89748 8.95192 3.89748 9.20958 3.74118 9.36849C3.58488 9.52741 3.33146 9.52741 3.17514 9.36849L0.445466 6.59324C-0.148489 5.98937 -0.148489 5.01032 0.445466 4.40645L3.17514 1.63119C3.33146 1.47228 3.58488 1.47228 3.74118 1.63119ZM9.25883 1.63119C9.10251 1.79011 9.10251 2.04777 9.25883 2.20668L11.9885 4.98192C12.2699 5.26796 12.2699 5.73173 11.9885 6.01778L9.25883 8.79301C9.10251 8.95192 9.10251 9.20958 9.25883 9.36849C9.41513 9.52741 9.66855 9.52741 9.82485 9.36849L12.5545 6.59324C13.1485 5.98937 13.1485 5.01032 12.5545 4.40645L9.82485 1.63119C9.66855 1.47228 9.41513 1.47228 9.25883 1.63119Z" fill="url(#paint0_linear_1054_3406)"/>
<defs>
<linearGradient id="paint0_linear_1054_3406" x1="6.50002" y1="9.69531e-06" x2="6.50002" y2="11.0001" gradientUnits="userSpaceOnUse">
<stop stop-color="#FF1F00"/>
<stop offset="1" stop-color="#FF8A00"/>
</linearGradient>
</defs>
</svg>
