<svg width="102" height="102" viewBox="0 0 102 102" fill="none" xmlns="http://www.w3.org/2000/svg">
<g clip-path="url(#clip0_112_1040)">
<path fill-rule="evenodd" clip-rule="evenodd" d="M33.0596 32.4436C27.565 31.7688 21.5885 33.7512 16.0297 37.6391C8.62655 42.8252 1.77283 51.4335 -2.87022 62.2973C-3.0104 62.6246 -3.03791 62.989 -2.94843 63.3336C-2.85895 63.6782 -2.65754 63.9831 -2.37585 64.2008C-2.09416 64.4185 -1.74813 64.5368 -1.39211 64.5366C-1.0361 64.5363 -0.690262 64.4174 -0.40892 64.1992C6.31306 58.9842 11.5698 56.205 15.2714 55.5752C18.9762 54.9454 21.0519 55.9993 22.8674 59.1579C23.0158 59.416 23.233 59.6279 23.4948 59.7697C23.7566 59.9116 24.0527 59.9778 24.35 59.9612C24.6472 59.9445 24.934 59.8454 25.1783 59.6752C25.4226 59.505 25.6149 59.2705 25.7335 58.9974C29.1844 50.9694 33.6089 43.3957 38.9076 36.4471C39.0509 36.2596 39.1512 36.0428 39.2012 35.8121C39.2512 35.5814 39.2498 35.3424 39.197 35.1123C39.1443 34.8823 39.0415 34.6667 38.8959 34.4808C38.7504 34.295 38.5656 34.1436 38.3549 34.0372C36.694 33.2068 34.9029 32.6678 33.0596 32.4436ZM27.9121 35.7854C30.4216 35.3356 32.6836 35.9556 34.9039 36.6593C30.5611 42.6347 26.8331 49.0335 23.7767 55.7584C21.4471 53.2778 18.4557 51.7741 14.7348 52.4071C11.512 52.9534 7.6883 54.9838 3.49831 57.6893C7.63367 50.3183 12.5306 44.0108 17.8773 40.2675C21.2768 37.8897 24.6796 36.3702 27.9121 35.7854ZM63.5462 59.7619C63.1876 59.7583 62.8381 59.8749 62.5534 60.0929C55.6083 65.3934 48.0381 69.8203 40.0129 73.2736C39.7397 73.3919 39.5047 73.5837 39.3342 73.8278C39.1637 74.0719 39.0644 74.3585 39.0474 74.6558C39.0304 74.9531 39.0964 75.2493 39.2379 75.5113C39.3795 75.7732 39.5911 75.9909 39.849 76.1396C43.0076 77.9551 44.0615 80.0274 43.4317 83.729C42.8019 87.4306 40.0258 92.6939 34.8108 99.4191C34.595 99.7004 34.4784 100.045 34.479 100.4C34.4797 100.754 34.5975 101.099 34.8142 101.379C35.031 101.66 35.3344 101.86 35.6772 101.951C36.0201 102.041 36.3831 102.015 36.7098 101.877C47.5735 97.2374 56.1816 90.374 61.3677 82.9676C66.5538 75.5613 68.35 67.4092 64.9697 60.6519C64.8376 60.3867 64.6347 60.1633 64.3835 60.0063C64.1323 59.8492 63.8425 59.7646 63.5462 59.7619ZM62.3477 64.0996C63.964 69.1764 62.9582 75.089 58.7329 81.1234C54.9895 86.4701 48.6853 91.3732 41.311 95.5085C44.0165 91.3218 46.0473 87.4887 46.5967 84.2691C47.2297 80.5418 45.7292 77.5533 43.2454 75.2238C49.9711 72.167 56.371 68.4421 62.3477 64.0996ZM19.2525 63.3124L18.2275 65.1955L14.722 71.6282L27.61 84.4009L35.6365 79.6999L19.2525 63.3124ZM20.0173 68.624L30.4216 79.0284L28.1209 80.3777L18.6999 71.0469L20.0173 68.624Z" fill="#2B4255"/>
<path fill-rule="evenodd" clip-rule="evenodd" d="M13.9958 77.3945L6.3838 85.0035L7.90685 86.5265L15.5157 78.9144L13.9958 77.3945ZM4.86075 86.5265L3.34092 88.0496L4.86075 89.5691L6.3838 88.0496L4.86075 86.5265ZM17.0387 80.4375L4.86075 92.6152L6.3838 94.1351L18.5618 81.9574L17.0387 80.4375ZM3.34092 94.1351L1.81787 95.6581L3.34092 97.1812L4.86075 95.6581L3.34092 94.1351ZM20.0816 83.4836L10.9497 92.6152L12.4728 94.1351L21.6046 85.0035L20.0816 83.4836ZM9.42669 94.1351L7.90685 95.6581L9.4299 97.1812L10.9497 95.6581L9.42669 94.1351Z" fill="#00B1E5"/>
<path fill-rule="evenodd" clip-rule="evenodd" d="M66.1874 10.4048C65.9365 10.4088 65.69 10.4715 65.4677 10.588C44.3346 21.3007 29.631 41.1101 21.974 59.7015C21.853 59.9956 21.822 60.319 21.8849 60.6307C21.9478 60.9425 22.1019 61.2283 22.3275 61.4525L37.5451 76.6704C37.7692 76.896 38.0553 77.0499 38.367 77.1128C38.6788 77.1757 39.0022 77.1448 39.2963 77.0238C57.8813 69.37 78.0087 54.6729 88.7311 33.5301C88.8262 33.3417 88.8834 33.1362 88.8992 32.9257C88.915 32.7152 88.8892 32.5037 88.8232 32.3032C88.7573 32.1027 88.6525 31.9172 88.5149 31.7572C88.3772 31.5972 88.2094 31.466 88.021 31.3709C87.8326 31.2757 87.6273 31.2184 87.4168 31.2026C87.2063 31.1868 86.9948 31.2128 86.7943 31.2787C86.5938 31.3446 86.4082 31.4493 86.2482 31.587C86.0882 31.7246 85.9569 31.8924 85.8617 32.0808C75.782 51.964 56.7407 66.0667 39.0007 73.5823L25.4153 59.9938C32.9278 42.2731 47.024 23.5402 66.9168 13.454C67.2465 13.2945 67.5118 13.0271 67.6687 12.6962C67.8256 12.3653 67.8648 11.9907 67.7797 11.6344C67.6946 11.2782 67.4903 10.9618 67.2007 10.7376C66.9111 10.5134 66.5536 10.398 66.1874 10.4048Z" fill="#2B4255"/>
<path fill-rule="evenodd" clip-rule="evenodd" d="M68.7615 9.00215C68.5539 9.00451 68.3488 9.04687 68.1574 9.12727C66.448 9.85345 63.3762 11.7044 62.1841 12.3085C61.9563 12.4235 61.7591 12.5912 61.609 12.7976C61.4589 13.004 61.3601 13.2432 61.3209 13.4954C61.2816 13.7476 61.303 14.0054 61.3833 14.2477C61.4636 14.49 61.6004 14.7097 61.7825 14.8886L84.3454 37.0918C84.5255 37.2687 84.7447 37.4006 84.9853 37.477C85.2259 37.5533 85.481 37.5718 85.7301 37.5311C85.9792 37.4904 86.2153 37.3917 86.419 37.2428C86.6228 37.0939 86.7887 36.899 86.9031 36.6741C87.1955 36.0957 87.8189 35.0383 88.4294 33.9747C89.0399 32.9079 89.6408 31.8512 90.0103 30.9804C90.1361 30.6862 90.1712 30.3608 90.1111 30.0465C90.051 29.7322 89.8984 29.4431 89.6729 29.2161L69.9215 9.47126C69.7693 9.31946 69.5883 9.19962 69.389 9.11904C69.1898 9.03846 68.9764 8.99878 68.7615 9.00215ZM68.4916 12.5848L86.5593 30.6462C86.2766 31.1925 86.0356 31.6905 85.6436 32.3717C85.4411 32.7251 85.2997 32.9916 85.1037 33.3354L65.5933 14.1304C66.7018 13.5167 67.6594 13.0057 68.4916 12.5848Z" fill="#2B4255"/>
<path fill-rule="evenodd" clip-rule="evenodd" d="M93.3935 4C84.1395 4 75.6438 5.93753 67.9451 9.20534C67.7041 9.3085 67.492 9.46892 67.3273 9.67288C67.1626 9.87684 67.0503 10.1181 67.0003 10.3754C66.9502 10.6327 66.9639 10.8984 67.0401 11.1493C67.1162 11.4001 67.2527 11.6285 67.4374 11.8145L87.282 31.7135C87.4679 31.8996 87.6967 32.0373 87.9483 32.1144C88.1999 32.1914 88.4665 32.2057 88.7248 32.1555C88.9831 32.1054 89.2251 31.9924 89.4295 31.8269C89.634 31.6613 89.7947 31.4481 89.8975 31.2059C93.175 23.4879 95.0001 14.8509 95.0001 5.60659C95.0001 5.1805 94.8308 4.77178 94.5295 4.47048C94.2282 4.16919 93.8196 4 93.3935 4ZM91.6101 7.39636C91.4332 14.289 90.1061 21.1036 87.6836 27.559L71.5663 11.4128C77.9742 8.95621 84.7505 7.59833 91.6101 7.39636Z" fill="#2B4255"/>
<path d="M67.1225 31.7924C65.6102 30.289 63.5644 29.4453 61.432 29.4453C59.2995 29.4453 57.2537 30.289 55.7414 31.7924C54.239 33.3046 53.3958 35.3497 53.3958 37.4814C53.3958 39.6131 54.239 41.6582 55.7414 43.1704C57.2535 44.6718 59.2979 45.5144 61.4287 45.5144C63.5596 45.5144 65.604 44.6718 67.1161 43.1704C68.6199 41.66 69.4648 39.6155 69.466 37.4841C69.4672 35.3528 68.6247 33.3045 67.1225 31.7924ZM64.8476 34.0643C66.7498 35.9633 66.7433 38.9964 64.8476 40.8954C64.4011 41.3475 63.8692 41.7063 63.2829 41.9513C62.6966 42.1963 62.0674 42.3228 61.432 42.3228C60.7965 42.3228 60.1674 42.1963 59.581 41.9513C58.9947 41.7063 58.4629 41.3475 58.0163 40.8954C57.5649 40.4482 57.2065 39.9158 56.962 39.3292C56.7174 38.7427 56.5915 38.1137 56.5915 37.4783C56.5915 36.8428 56.7174 36.2135 56.962 35.6269C57.2065 35.0404 57.5649 34.508 58.0163 34.0607C58.4635 33.6098 58.9956 33.2519 59.5818 33.0076C60.1681 32.7633 60.7969 32.6377 61.432 32.6377C62.0671 32.6377 62.6959 32.7633 63.2821 33.0076C63.8683 33.2519 64.4004 33.6098 64.8476 34.0607V34.0643Z" fill="#00B1E5"/>
</g>
<defs>
<clipPath id="clip0_112_1040">
<rect width="102" height="102" fill="white"/>
</clipPath>
</defs>
</svg>
