<svg width="43" height="43" viewBox="0 0 43 43" fill="none" xmlns="http://www.w3.org/2000/svg">
<path d="M21.5 0.799999L21.4995 0.800001C20.7579 0.801827 20.0472 1.09773 19.5234 1.62281C18.9996 2.14789 18.7055 2.85928 18.7055 3.60094C18.7055 5.13999 19.961 6.39547 21.5 6.39547L21.5005 6.39547C22.2422 6.39364 22.9528 6.09774 23.4766 5.57266C24.0004 5.04758 24.2946 4.33619 24.2946 3.59453C24.2946 2.05548 23.0391 0.8 21.5 0.799999ZM20.3483 3.59453C20.3483 2.96186 20.8674 2.44281 21.5 2.44281C21.7278 2.44281 21.9505 2.51036 22.1399 2.63691C22.3293 2.76347 22.4769 2.94334 22.5641 3.15379C22.6512 3.36424 22.674 3.59581 22.6296 3.81922C22.5852 4.04263 22.4755 4.24785 22.3144 4.40892C22.1533 4.56999 21.9481 4.67968 21.7247 4.72412C21.5013 4.76856 21.2697 4.74575 21.0593 4.65858C20.8488 4.57141 20.669 4.42379 20.5424 4.23439C20.4158 4.04499 20.3483 3.82232 20.3483 3.59453ZM16.2263 21.5C16.2263 24.4102 18.5966 26.7738 21.5 26.7738C24.4102 26.7738 26.7738 24.4034 26.7738 21.5C26.7738 18.59 24.41 16.2263 21.5 16.2263C18.59 16.2263 16.2263 18.59 16.2263 21.5ZM17.8691 21.5C17.8691 19.4964 19.4964 17.8691 21.5 17.8691C23.5036 17.8691 25.131 19.4964 25.131 21.5C25.131 23.5036 23.5036 25.1309 21.5 25.1309C19.4964 25.1309 17.8691 23.5036 17.8691 21.5Z" fill="url(#paint0_linear_411_1628)" stroke="url(#paint1_linear_411_1628)" stroke-width="0.4"/>
<path d="M6.04026 8.83386C6.03875 9.20205 6.11061 9.56685 6.25163 9.90696C6.39264 10.247 6.59998 10.5556 6.86154 10.8147C7.39235 11.3453 8.09653 11.6353 8.84119 11.6353C9.58555 11.6353 10.2906 11.3455 10.8158 10.807C11.3388 10.2824 11.6325 9.57189 11.6325 8.83113C11.6325 8.08998 11.3385 7.3791 10.815 6.85447L10.8146 6.85412C10.423 6.46363 9.92451 6.19792 9.38203 6.09054C8.83954 5.98315 8.2774 6.03891 7.76658 6.25077C7.25576 6.46262 6.81916 6.82108 6.51191 7.28089C6.20473 7.74059 6.04061 8.28098 6.04026 8.83386ZM6.04026 8.83386C6.04026 8.83399 6.04026 8.83411 6.04026 8.83424L6.24026 8.83434L6.04026 8.83349C6.04026 8.83362 6.04026 8.83374 6.04026 8.83386ZM13.6701 21.4995C13.6701 25.8189 17.1806 29.3293 21.4999 29.3293C25.8193 29.3293 29.3298 25.8189 29.3298 21.4995C29.3298 17.1801 25.8193 13.6697 21.4999 13.6697C17.1806 13.6697 13.6701 17.1801 13.6701 21.4995ZM15.3129 21.4995C15.3129 18.0865 18.087 15.3125 21.4999 15.3125C24.9129 15.3125 27.687 18.0865 27.687 21.4995C27.687 24.9125 24.9129 27.6865 21.4999 27.6865C18.087 27.6865 15.3129 24.9125 15.3129 21.4995ZM20.6785 9.40449C20.6785 9.86089 21.0436 10.2259 21.4999 10.2259C21.9577 10.2259 22.3214 9.85314 22.3214 9.40449V5.57355C22.3214 5.11716 21.9563 4.75215 21.4999 4.75215C21.0436 4.75215 20.6785 5.11716 20.6785 5.57355V9.40449ZM8.02808 8.02763C8.25231 7.80341 8.54697 7.68902 8.84119 7.68902C9.1369 7.68902 9.43139 7.79805 9.66113 8.02166C10.1087 8.47604 10.107 9.20754 9.66071 9.65385C9.22632 10.0882 8.46248 10.0882 8.02809 9.65385C7.80906 9.43483 7.68948 9.14605 7.68948 8.84074C7.68948 8.53544 7.80906 8.24666 8.02808 8.02763Z" fill="url(#paint2_linear_411_1628)" stroke="url(#paint3_linear_411_1628)" stroke-width="0.4"/>
<path d="M6.38906 21.5001C6.38882 19.9612 5.13343 18.706 3.59453 18.706C2.05548 18.706 0.8 19.9615 0.8 21.5005C0.8 23.0396 2.05548 24.295 3.59453 24.295C5.13934 24.295 6.39572 23.0401 6.38906 21.5001ZM6.38906 21.5001C6.38906 21.4999 6.38906 21.4998 6.38906 21.4996L6.18906 21.5005H6.38906C6.38906 21.5004 6.38906 21.5002 6.38906 21.5001ZM13.5208 13.5354L13.5209 13.5354L13.5247 13.5316C13.8462 13.2101 13.8462 12.6927 13.5247 12.3711L10.8149 9.66127C10.4934 9.33978 9.97607 9.33973 9.65452 9.66111C9.5781 9.73716 9.51746 9.82755 9.47606 9.92709C9.43462 10.0267 9.41328 10.1336 9.41328 10.2415C9.41328 10.3494 9.43462 10.4563 9.47606 10.556C9.51745 10.6555 9.57808 10.7458 9.65446 10.8219C9.65456 10.822 9.65466 10.8221 9.65476 10.8222L12.3642 13.5316C12.527 13.6944 12.7397 13.7696 12.9477 13.7696C13.1551 13.7696 13.3638 13.6842 13.5208 13.5354ZM4.74626 21.4988H4.74625V21.5005C4.74625 22.1332 4.2272 22.6522 3.59453 22.6522C2.96186 22.6522 2.44281 22.1332 2.44281 21.5005C2.44281 20.8672 2.95607 20.3488 3.59453 20.3488C4.23518 20.3488 4.7517 20.8626 4.74626 21.4988Z" fill="url(#paint4_linear_411_1628)" stroke="url(#paint5_linear_411_1628)" stroke-width="0.4"/>
<path d="M6.04029 34.1522C6.03878 34.5204 6.11064 34.8852 6.25167 35.2253C6.39267 35.5654 6.6 35.8739 6.86155 36.133C7.39236 36.6636 8.09655 36.9536 8.84123 36.9536C9.58559 36.9536 10.2907 36.6638 10.8158 36.1253C11.3388 35.6007 11.6325 34.8902 11.6325 34.1495C11.6325 33.4083 11.3385 32.6974 10.815 32.1728L10.8146 32.1724C10.4231 31.782 9.92455 31.5162 9.38206 31.4089C8.83958 31.3015 8.27744 31.3572 7.76662 31.5691C7.25579 31.7809 6.8192 32.1394 6.51195 32.5992C6.20477 33.0589 6.04065 33.5993 6.04029 34.1522ZM6.04029 34.1522C6.04029 34.1523 6.04029 34.1524 6.04029 34.1526L6.24029 34.1527L6.0403 34.1518C6.04029 34.1519 6.04029 34.152 6.04029 34.1522ZM5.57404 22.3217H9.40498C9.62283 22.3217 9.83176 22.2352 9.9858 22.0811C10.1398 21.9271 10.2264 21.7182 10.2264 21.5003C10.2264 21.2825 10.1398 21.0735 9.9858 20.9195C9.83176 20.7654 9.62283 20.6789 9.40498 20.6789H5.57404C5.11765 20.6789 4.75264 21.0439 4.75264 21.5003C4.75264 21.9567 5.11765 22.3217 5.57404 22.3217ZM8.02812 33.346C8.25234 33.1217 8.54701 33.0073 8.84123 33.0073C9.1344 33.0073 9.43013 33.1211 9.66203 33.3409C10.1087 33.7953 10.1068 34.5261 9.66075 34.9722C9.22635 35.4066 8.46252 35.4066 8.02812 34.9722C7.80909 34.7531 7.68951 34.4644 7.68951 34.1591C7.68951 33.8538 7.80909 33.565 8.02812 33.346Z" fill="url(#paint6_linear_411_1628)" stroke="url(#paint7_linear_411_1628)" stroke-width="0.4"/>
<path d="M10.2386 33.583C10.0763 33.5842 9.91726 33.5371 9.78175 33.4477C9.64602 33.3581 9.54003 33.2302 9.47729 33.0801C9.41455 32.9301 9.3979 32.7648 9.42947 32.6053C9.46102 32.4458 9.53932 32.2994 9.65438 32.1846C9.65444 32.1845 9.65449 32.1845 9.65455 32.1844L12.3642 29.4748C12.6857 29.1532 13.2031 29.1532 13.5247 29.4748C13.8462 29.7963 13.8462 30.3137 13.5247 30.6353L10.8148 33.3451C10.6537 33.5062 10.4485 33.5828 10.2386 33.583ZM10.2386 33.583C10.2383 33.583 10.2381 33.583 10.2378 33.583V33.383L10.2394 33.583C10.2392 33.583 10.2389 33.583 10.2386 33.583ZM18.7055 39.4049C18.7055 40.944 19.9609 42.1995 21.5 42.1995C23.039 42.1995 24.2945 40.944 24.2945 39.4049C24.2945 37.8659 23.039 36.6104 21.5 36.6104C19.9609 36.6104 18.7055 37.8659 18.7055 39.4049ZM20.3483 39.3985C20.3483 38.7659 20.8673 38.2468 21.5 38.2468C21.7278 38.2468 21.9504 38.3143 22.1398 38.4409C22.3292 38.5675 22.4769 38.7473 22.564 38.9578C22.6512 39.1682 22.674 39.3998 22.6296 39.6232C22.5851 39.8466 22.4754 40.0518 22.3144 40.2129C22.1533 40.374 21.9481 40.4837 21.7247 40.5281C21.5013 40.5725 21.2697 40.5497 21.0592 40.4626C20.8488 40.3754 20.6689 40.2278 20.5424 40.0384C20.4158 39.849 20.3483 39.6263 20.3483 39.3985Z" fill="url(#paint8_linear_411_1628)" stroke="url(#paint9_linear_411_1628)" stroke-width="0.4"/>
<path d="M31.3579 34.1523C31.3564 34.5205 31.4282 34.8853 31.5693 35.2254C31.7103 35.5654 31.9176 35.874 32.1791 36.1331C32.7099 36.6637 33.4141 36.9537 34.1588 36.9537C34.9032 36.9537 35.6082 36.6639 36.1334 36.1253C36.6564 35.6008 36.9501 34.8903 36.9501 34.1495C36.9501 33.4084 36.6561 32.6975 36.1326 32.1729L36.1322 32.1725C35.7406 31.782 35.2421 31.5163 34.6997 31.4089C34.1572 31.3015 33.595 31.3573 33.0842 31.5692C32.5734 31.781 32.1368 32.1395 31.8295 32.5993C31.5223 33.059 31.3582 33.5994 31.3579 34.1523ZM31.3579 34.1523C31.3579 34.1524 31.3579 34.1525 31.3579 34.1526L31.5579 34.1527L31.3579 34.1519C31.3579 34.152 31.3579 34.1522 31.3579 34.1523ZM20.6787 37.4263C20.6787 37.8827 21.0437 38.2477 21.5001 38.2477C21.9565 38.2477 22.3215 37.8827 22.3215 37.4263V33.5954C22.3215 33.139 21.9565 32.774 21.5001 32.774C21.0437 32.774 20.6787 33.139 20.6787 33.5954V37.4263ZM33.3457 33.346C33.5699 33.1218 33.8646 33.0074 34.1588 33.0074C34.452 33.0074 34.7477 33.1211 34.9796 33.3409C35.4263 33.7954 35.4244 34.5262 34.9783 34.9722C34.5439 35.4066 33.7801 35.4066 33.3457 34.9722C33.1267 34.7532 33.0071 34.4644 33.0071 34.1591C33.0071 33.8538 33.1267 33.5651 33.3457 33.346Z" fill="url(#paint10_linear_411_1628)" stroke="url(#paint11_linear_411_1628)" stroke-width="0.4"/>
<path d="M29.2906 30.3708L29.4753 30.294L29.2906 30.3708C29.332 30.4703 29.3927 30.5607 29.4691 30.6368C29.4692 30.6369 29.4693 30.6369 29.4693 30.637L32.1788 33.3464C32.3415 33.5092 32.5543 33.5844 32.7622 33.5844C32.9682 33.5844 33.1829 33.5103 33.3412 33.3445C33.6608 33.0229 33.6602 32.5068 33.3393 32.1859L30.6294 29.4761C30.3079 29.1545 29.7905 29.1545 29.4689 29.4761L29.6104 29.6175L29.4693 29.4757C29.3928 29.5518 29.3321 29.6422 29.2906 29.7419C29.2492 29.8416 29.2279 29.9484 29.2279 30.0563C29.2279 30.1642 29.2492 30.2711 29.2906 30.3708ZM36.611 21.5008C36.611 23.0398 37.8665 24.2953 39.4055 24.2953C40.9446 24.2953 42.2 23.0398 42.2 21.5008C42.2 19.9617 40.9446 18.7062 39.4055 18.7062C37.8665 18.7062 36.611 19.9617 36.611 21.5008ZM38.2538 21.5008C38.2538 20.8675 38.7671 20.3491 39.4055 20.3491C40.0388 20.3491 40.5572 20.8623 40.5572 21.5008C40.5572 22.1334 40.0382 22.6525 39.4055 22.6525C38.7728 22.6525 38.2538 22.1334 38.2538 21.5008Z" fill="url(#paint12_linear_411_1628)" stroke="url(#paint13_linear_411_1628)" stroke-width="0.4"/>
<path d="M31.3578 8.8339C31.3563 9.20208 31.4281 9.56688 31.5691 9.907C31.7101 10.2471 31.9175 10.5557 32.1791 10.8148C32.7099 11.3454 33.414 11.6353 34.1587 11.6353C34.9031 11.6353 35.6081 11.3455 36.1333 10.807C36.6563 10.2824 36.95 9.57192 36.95 8.83117C36.95 8.09002 36.656 7.37913 36.1325 6.8545L36.1321 6.85416C35.7405 6.46367 35.242 6.19796 34.6995 6.09057C34.157 5.98319 33.5949 6.03894 33.0841 6.2508C32.5733 6.46266 32.1367 6.82112 31.8294 7.28092C31.5222 7.74062 31.3581 8.28102 31.3578 8.8339ZM31.3578 8.8339C31.3578 8.83402 31.3578 8.83415 31.3578 8.83427L31.5578 8.83437L31.3578 8.83353C31.3578 8.83365 31.3578 8.83377 31.3578 8.8339ZM33.5949 22.3209H37.4259C37.8823 22.3209 38.2473 21.9559 38.2473 21.4995C38.2473 21.0431 37.8823 20.6781 37.4259 20.6781H33.5949C33.1386 20.6781 32.7735 21.0431 32.7735 21.4995C32.7735 21.9559 33.1386 22.3209 33.5949 22.3209ZM33.3456 8.02767C33.5698 7.80345 33.8645 7.68906 34.1587 7.68906C34.4544 7.68906 34.7489 7.79809 34.9786 8.02169C35.4262 8.47607 35.4245 9.20757 34.9782 9.65389C34.5438 10.0883 33.78 10.0883 33.3456 9.65389C33.1266 9.43486 33.007 9.14609 33.007 8.84078C33.007 8.53547 33.1266 8.24669 33.3456 8.02767Z" fill="url(#paint14_linear_411_1628)" stroke="url(#paint15_linear_411_1628)" stroke-width="0.4"/>
<path d="M30.0534 13.7696C30.2688 13.769 30.4753 13.6839 30.6286 13.5325L30.6286 13.5325L30.6294 13.5316L33.3393 10.8218C33.6608 10.5002 33.6608 9.98282 33.3393 9.66127C33.0177 9.33973 32.5003 9.33973 32.1788 9.66127L29.4691 12.3709L29.6103 12.5125L29.4689 12.3711L29.4691 12.371C29.3539 12.4858 29.2756 12.6323 29.244 12.7918C29.2125 12.9513 29.2291 13.1166 29.2919 13.2667C29.3546 13.4167 29.4606 13.5446 29.5963 13.6342C29.7319 13.7237 29.891 13.7708 30.0534 13.7696ZM30.0534 13.7696C30.0532 13.7696 30.0529 13.7696 30.0527 13.7696L30.0524 13.5696L30.054 13.7696C30.0538 13.7696 30.0536 13.7696 30.0534 13.7696Z" fill="url(#paint16_linear_411_1628)" stroke="url(#paint17_linear_411_1628)" stroke-width="0.4"/>
<defs>
<linearGradient id="paint0_linear_411_1628" x1="21.5" y1="1" x2="21.5" y2="26.5738" gradientUnits="userSpaceOnUse">
<stop stop-color="#00B1E5"/>
<stop offset="0.619454" stop-color="#00D5D8"/>
<stop offset="1" stop-color="#00E6D2"/>
</linearGradient>
<linearGradient id="paint1_linear_411_1628" x1="21.5" y1="1" x2="21.5" y2="26.5738" gradientUnits="userSpaceOnUse">
<stop stop-color="#16B1E6"/>
<stop offset="1" stop-color="#00ECD2"/>
</linearGradient>
<linearGradient id="paint2_linear_411_1628" x1="17.685" y1="4.95215" x2="17.685" y2="29.1293" gradientUnits="userSpaceOnUse">
<stop stop-color="#00B1E5"/>
<stop offset="0.619454" stop-color="#00D5D8"/>
<stop offset="1" stop-color="#00E6D2"/>
</linearGradient>
<linearGradient id="paint3_linear_411_1628" x1="17.685" y1="4.95215" x2="17.685" y2="29.1293" gradientUnits="userSpaceOnUse">
<stop stop-color="#16B1E6"/>
<stop offset="1" stop-color="#00ECD2"/>
</linearGradient>
<linearGradient id="paint4_linear_411_1628" x1="7.28293" y1="9.62012" x2="7.28293" y2="24.095" gradientUnits="userSpaceOnUse">
<stop stop-color="#00B1E5"/>
<stop offset="0.619454" stop-color="#00D5D8"/>
<stop offset="1" stop-color="#00E6D2"/>
</linearGradient>
<linearGradient id="paint5_linear_411_1628" x1="7.28293" y1="9.62012" x2="7.28293" y2="24.095" gradientUnits="userSpaceOnUse">
<stop stop-color="#16B1E6"/>
<stop offset="1" stop-color="#00ECD2"/>
</linearGradient>
<linearGradient id="paint6_linear_411_1628" x1="8.19258" y1="20.8789" x2="8.19258" y2="36.7536" gradientUnits="userSpaceOnUse">
<stop stop-color="#00B1E5"/>
<stop offset="0.619454" stop-color="#00D5D8"/>
<stop offset="1" stop-color="#00E6D2"/>
</linearGradient>
<linearGradient id="paint7_linear_411_1628" x1="8.19258" y1="20.8789" x2="8.19258" y2="36.7536" gradientUnits="userSpaceOnUse">
<stop stop-color="#16B1E6"/>
<stop offset="1" stop-color="#00ECD2"/>
</linearGradient>
<linearGradient id="paint8_linear_411_1628" x1="16.8542" y1="29.4336" x2="16.8542" y2="41.9995" gradientUnits="userSpaceOnUse">
<stop stop-color="#00B1E5"/>
<stop offset="0.619454" stop-color="#00D5D8"/>
<stop offset="1" stop-color="#00E6D2"/>
</linearGradient>
<linearGradient id="paint9_linear_411_1628" x1="16.8542" y1="29.4336" x2="16.8542" y2="41.9995" gradientUnits="userSpaceOnUse">
<stop stop-color="#16B1E6"/>
<stop offset="1" stop-color="#00ECD2"/>
</linearGradient>
<linearGradient id="paint10_linear_411_1628" x1="28.8144" y1="31.5557" x2="28.8144" y2="38.0477" gradientUnits="userSpaceOnUse">
<stop stop-color="#00B1E5"/>
<stop offset="0.619454" stop-color="#00D5D8"/>
<stop offset="1" stop-color="#00E6D2"/>
</linearGradient>
<linearGradient id="paint11_linear_411_1628" x1="28.8144" y1="31.5557" x2="28.8144" y2="38.0477" gradientUnits="userSpaceOnUse">
<stop stop-color="#16B1E6"/>
<stop offset="1" stop-color="#00ECD2"/>
</linearGradient>
<linearGradient id="paint12_linear_411_1628" x1="35.714" y1="18.9062" x2="35.714" y2="33.3844" gradientUnits="userSpaceOnUse">
<stop stop-color="#00B1E5"/>
<stop offset="0.619454" stop-color="#00D5D8"/>
<stop offset="1" stop-color="#00E6D2"/>
</linearGradient>
<linearGradient id="paint13_linear_411_1628" x1="35.714" y1="18.9062" x2="35.714" y2="33.3844" gradientUnits="userSpaceOnUse">
<stop stop-color="#16B1E6"/>
<stop offset="1" stop-color="#00ECD2"/>
</linearGradient>
<linearGradient id="paint14_linear_411_1628" x1="34.8025" y1="6.2373" x2="34.8025" y2="22.1209" gradientUnits="userSpaceOnUse">
<stop stop-color="#00B1E5"/>
<stop offset="0.619454" stop-color="#00D5D8"/>
<stop offset="1" stop-color="#00E6D2"/>
</linearGradient>
<linearGradient id="paint15_linear_411_1628" x1="34.8025" y1="6.2373" x2="34.8025" y2="22.1209" gradientUnits="userSpaceOnUse">
<stop stop-color="#16B1E6"/>
<stop offset="1" stop-color="#00ECD2"/>
</linearGradient>
<linearGradient id="paint16_linear_411_1628" x1="31.4044" y1="9.62012" x2="31.4044" y2="13.5696" gradientUnits="userSpaceOnUse">
<stop stop-color="#00B1E5"/>
<stop offset="0.619454" stop-color="#00D5D8"/>
<stop offset="1" stop-color="#00E6D2"/>
</linearGradient>
<linearGradient id="paint17_linear_411_1628" x1="31.4044" y1="9.62012" x2="31.4044" y2="13.5696" gradientUnits="userSpaceOnUse">
<stop stop-color="#16B1E6"/>
<stop offset="1" stop-color="#00ECD2"/>
</linearGradient>
</defs>
</svg>
