<svg width="30" height="32" viewBox="0 0 30 32" fill="none" xmlns="http://www.w3.org/2000/svg">
<path d="M21.2847 4.83368C21.6675 5.05326 22.1207 5.11097 22.5454 4.99422C22.9702 4.87748 23.332 4.59576 23.5519 4.21053C23.7338 3.88607 24.0173 3.63182 24.3577 3.48763C24.6981 3.34344 25.0762 3.31747 25.4328 3.4138C25.7894 3.51013 26.1043 3.7233 26.328 4.01989C26.5518 4.31648 26.6718 4.67972 26.6692 5.05263C26.6692 5.49931 26.4936 5.9277 26.1809 6.24355C25.8683 6.5594 25.4443 6.73684 25.0022 6.73684C24.56 6.73684 24.136 6.91428 23.8234 7.23014C23.5108 7.54599 23.3352 7.97437 23.3352 8.42105C23.3352 8.86773 23.5108 9.29612 23.8234 9.61197C24.136 9.92782 24.56 10.1053 25.0022 10.1053C25.8799 10.1047 26.742 9.87074 27.5019 9.42692C28.2618 8.9831 28.8927 8.34503 29.3312 7.57684C29.7697 6.80865 30.0003 5.93739 30 5.05061C29.9996 4.16382 29.7683 3.29275 29.3292 2.52491C28.8901 1.75708 28.2587 1.11952 27.4984 0.676317C26.7382 0.233109 25.8759 -0.000141969 24.9982 6.48278e-08C24.1204 0.000142099 23.2582 0.233672 22.4981 0.677126C21.738 1.12058 21.1068 1.75834 20.6679 2.52631C20.5577 2.71854 20.4862 2.9309 20.4576 3.15116C20.4289 3.37141 20.4437 3.59522 20.501 3.80969C20.5584 4.02416 20.6571 4.22505 20.7916 4.40079C20.9261 4.57653 21.0937 4.72365 21.2847 4.83368ZM28.4529 16.8421C28.0153 16.7847 27.5731 16.905 27.2231 17.1765C26.8731 17.448 26.6439 17.8486 26.5858 18.2905C26.236 21.1455 24.865 23.7728 22.7311 25.6775C20.5971 27.5822 17.8475 28.6328 15.0001 28.6316H5.68149L6.76505 27.5368C7.07553 27.2213 7.2498 26.7944 7.2498 26.3495C7.2498 25.9045 7.07553 25.4777 6.76505 25.1621C5.13963 23.5135 4.03346 21.4157 3.58588 19.1331C3.1383 16.8505 3.36932 14.4851 4.24986 12.3349C5.13039 10.1847 6.62105 8.3458 8.53406 7.04992C10.4471 5.75404 12.6969 5.0591 15.0001 5.05263C15.4422 5.05263 15.8662 4.87519 16.1788 4.55934C16.4915 4.24349 16.6671 3.8151 16.6671 3.36842C16.6671 2.92174 16.4915 2.49335 16.1788 2.1775C15.8662 1.86165 15.4422 1.68421 15.0001 1.68421C12.1816 1.69609 9.42334 2.50987 7.04143 4.03233C4.65952 5.55478 2.75027 7.72433 1.5324 10.2924C0.314535 12.8605 -0.162683 15.7232 0.155419 18.5527C0.473521 21.3821 1.57408 24.0638 3.331 26.2905L0.48041 29.12C0.2491 29.3568 0.0924067 29.6576 0.0301035 29.9843C-0.0321996 30.311 0.00267871 30.6491 0.130338 30.9558C0.255397 31.2634 0.467771 31.5266 0.740695 31.7125C1.01362 31.8983 1.33488 31.9983 1.66399 32H15.0001C18.6533 32.0005 22.1811 30.6543 24.9218 28.214C27.6626 25.7737 29.4278 22.4069 29.8865 18.7453C29.917 18.5251 29.904 18.3009 29.8484 18.0858C29.7927 17.8707 29.6954 17.6689 29.5621 17.492C29.4288 17.315 29.2622 17.1665 29.0718 17.055C28.8814 16.9434 28.6711 16.8711 28.4529 16.8421ZM25.6356 11.9074C25.3321 11.7717 24.9955 11.7307 24.6688 11.7895L24.3687 11.8905L24.0686 12.0421L23.8186 12.2611C23.6686 12.4163 23.5498 12.5993 23.4685 12.8C23.3699 13.0101 23.3241 13.2415 23.3352 13.4737C23.3303 13.6983 23.37 13.9216 23.4518 14.1305C23.5381 14.3327 23.6627 14.5158 23.8186 14.6695C23.9744 14.8256 24.1591 14.9491 24.3622 15.0329C24.5653 15.1167 24.7828 15.1592 25.0022 15.1579C25.4443 15.1579 25.8683 14.9804 26.1809 14.6646C26.4936 14.3487 26.6692 13.9204 26.6692 13.4737C26.6748 13.2528 26.6291 13.0336 26.5358 12.8337C26.3567 12.429 26.0362 12.1052 25.6356 11.9242V11.9074Z" fill="#A6ABC8"/>
</svg>
