<svg width="91" height="91" viewBox="0 0 91 91" fill="none" xmlns="http://www.w3.org/2000/svg">
<path d="M67.9092 0.036C79.5002 0.147 89.9612 10.195 90.0752 22.202C90.1242 37.473 90.2182 52.744 90.0732 68.013C89.8912 79.495 79.9162 89.922 67.9092 90.036C52.6382 90.085 37.3672 90.179 22.0982 90.034C10.6182 89.852 0.190175 79.877 0.0751749 67.87C0.0271749 52.599 -0.067825 37.328 0.077175 22.059C0.259175 10.577 10.2342 0.151 22.2412 0.036C37.4642 -0.012 52.6862 -0.012 67.9092 0.036ZM22.3902 6.036C13.9302 6.063 6.16017 13.322 6.07517 22.24C6.02717 37.473 5.93118 52.706 6.07618 67.937C6.20918 76.32 13.4912 83.952 22.2792 84.036C37.5122 84.085 52.7452 84.179 67.9762 84.035C76.3642 83.901 83.9912 76.62 84.0752 67.832C84.1242 52.599 84.2182 37.366 84.0742 22.135C83.9402 13.748 76.6702 6.12 67.8712 6.036C52.7112 5.988 37.5502 6.036 22.3902 6.036Z" fill="#16B1E6"/>
<path d="M45.3242 12.451C56.2532 12.658 65.7462 23.321 64.1882 34.444C62.9132 43.54 54.3162 51.049 45.0752 51.049C33.9562 51.049 24.0202 39.836 26.0772 28.337C27.6332 19.635 35.6732 12.625 44.8262 12.451C45.0752 12.449 45.0752 12.449 45.3242 12.451ZM44.9032 18.45C36.1142 18.617 28.9722 28.978 33.0862 37.51C36.6912 44.989 48.0272 47.307 54.2482 41.375C61.5202 34.442 57.6752 18.687 45.2472 18.45C45.0752 18.449 45.0752 18.449 44.9032 18.45ZM45.3732 55.05C57.2022 55.213 68.6002 62.248 73.8692 73.082C74.9782 75.362 72.7342 78.429 70.1722 77.411C68.2712 76.655 67.7552 74.154 66.5362 72.376C59.1772 61.64 43.2332 57.868 31.7792 64.706C27.3732 67.336 23.8002 71.291 21.5732 75.923C21.5732 75.923 20.5512 77.546 19.0132 77.62C16.6612 77.732 15.1682 75.138 16.7892 72.083C22.2252 61.833 33.4522 54.996 45.3732 55.05Z" fill="#16B1E6"/>
</svg>
