<svg width="47" height="51" viewBox="0 0 47 51" fill="none" xmlns="http://www.w3.org/2000/svg">
<path fill-rule="evenodd" clip-rule="evenodd" d="M4.8606 3.64377C4.8606 2.67764 5.24439 1.75108 5.92754 1.06793C6.6107 0.38477 7.53726 0.000976563 8.50339 0.000976562H30.3601C30.6822 0.000976563 30.991 0.128907 31.2187 0.356626C31.4465 0.584345 31.5744 0.893197 31.5744 1.21524C31.5744 1.53728 31.4465 1.84613 31.2187 2.07385C30.991 2.30157 30.6822 2.4295 30.3601 2.4295H8.50339C8.18134 2.4295 7.87249 2.55743 7.64477 2.78515C7.41705 3.01287 7.28912 3.32172 7.28912 3.64377V25.5005C7.28912 25.8225 7.16119 26.1314 6.93347 26.3591C6.70575 26.5868 6.3969 26.7148 6.07486 26.7148C5.75282 26.7148 5.44396 26.5868 5.21625 26.3591C4.98853 26.1314 4.8606 25.8225 4.8606 25.5005V3.64377ZM44.9313 14.5721C45.2533 14.5721 45.5622 14.7001 45.7899 14.9278C46.0176 15.1555 46.1456 15.4644 46.1456 15.7864V35.2146C46.1456 35.5367 46.0176 35.8455 45.7899 36.0732C45.5622 36.3009 45.2533 36.4289 44.9313 36.4289C44.6092 36.4289 44.3004 36.3009 44.0727 36.0732C43.845 35.8455 43.717 35.5367 43.717 35.2146V15.7864C43.717 15.4644 43.845 15.1555 44.0727 14.9278C44.3004 14.7001 44.6092 14.5721 44.9313 14.5721ZM44.9313 41.2859C45.2533 41.2859 45.5622 41.4139 45.7899 41.6416C46.0176 41.8693 46.1456 42.1782 46.1456 42.5002V47.3572C46.1456 48.3234 45.7618 49.2499 45.0786 49.9331C44.3954 50.6162 43.4689 51 42.5028 51H10.9319C10.6099 51 10.301 50.8721 10.0733 50.6444C9.84558 50.4167 9.71765 50.1078 9.71765 49.7858C9.71765 49.4637 9.84558 49.1549 10.0733 48.9272C10.301 48.6994 10.6099 48.5715 10.9319 48.5715H42.5028C42.8248 48.5715 43.1337 48.4436 43.3614 48.2159C43.5891 47.9881 43.717 47.6793 43.717 47.3572V42.5002C43.717 42.1782 43.845 41.8693 44.0727 41.6416C44.3004 41.4139 44.6092 41.2859 44.9313 41.2859Z" fill="#16B1E6"/>
<path fill-rule="evenodd" clip-rule="evenodd" d="M29.8963 0.0927806C30.1182 0.000703709 30.3623 -0.0235236 30.5979 0.0231623C30.8335 0.0698483 31.0499 0.185351 31.2199 0.355062L45.791 14.9262C45.9613 15.0961 46.0773 15.3126 46.1243 15.5484C46.1714 15.7843 46.1473 16.0288 46.0552 16.2509C45.9631 16.473 45.8072 16.6628 45.6071 16.7962C45.407 16.9296 45.1718 17.0006 44.9313 17.0002H32.7887C31.8226 17.0002 30.896 16.6164 30.2129 15.9332C29.5297 15.2501 29.1459 14.3235 29.1459 13.3574V1.21476C29.146 0.974482 29.2173 0.739617 29.3509 0.539893C29.4844 0.34017 29.6743 0.184567 29.8963 0.0927806ZM31.5744 4.14842V13.3574C31.5744 13.6794 31.7024 13.9883 31.9301 14.216C32.1578 14.4437 32.4667 14.5717 32.7887 14.5717H42.0001L31.5744 4.14842ZM10.932 35.2141C10.932 34.248 11.3158 33.3215 11.9989 32.6383C12.6821 31.9551 13.6086 31.5713 14.5748 31.5713H19.4318C19.7539 31.5713 20.0627 31.6993 20.2904 31.927C20.5181 32.1547 20.6461 32.4636 20.6461 32.7856C20.6461 33.1077 20.5181 33.4165 20.2904 33.6442C20.0627 33.8719 19.7539 33.9999 19.4318 33.9999H14.5748C14.2527 33.9999 13.9439 34.1278 13.7161 34.3555C13.4884 34.5832 13.3605 34.8921 13.3605 35.2141C13.3605 35.5362 13.4884 35.845 13.7161 36.0728C13.9439 36.3005 14.2527 36.4284 14.5748 36.4284H17.0033C17.9694 36.4284 18.896 36.8122 19.5791 37.4954C20.2623 38.1785 20.6461 39.1051 20.6461 40.0712C20.6461 41.0373 20.2623 41.9639 19.5791 42.647C18.896 43.3302 17.9694 43.714 17.0033 43.714H12.1462C11.8242 43.714 11.5153 43.5861 11.2876 43.3583C11.0599 43.1306 10.932 42.8218 10.932 42.4997C10.932 42.1777 11.0599 41.8688 11.2876 41.6411C11.5153 41.4134 11.8242 41.2855 12.1462 41.2855H17.0033C17.3253 41.2855 17.6342 41.1575 17.8619 40.9298C18.0896 40.7021 18.2175 40.3932 18.2175 40.0712C18.2175 39.7491 18.0896 39.4403 17.8619 39.2126C17.6342 38.9849 17.3253 38.8569 17.0033 38.8569H14.5748C13.6086 38.8569 12.6821 38.4731 11.9989 37.79C11.3158 37.1068 10.932 36.1803 10.932 35.2141ZM25.0781 31.6491C25.3796 31.5366 25.7133 31.5483 26.0061 31.6818C26.2989 31.8152 26.5268 32.0593 26.6397 32.3606L29.1459 39.0415L31.6522 32.3582C31.7655 32.0568 31.994 31.8127 32.2873 31.6797C32.5806 31.5467 32.9147 31.5357 33.2161 31.6491C33.5176 31.7624 33.7616 31.9909 33.8946 32.2842C34.0276 32.5775 34.0386 32.9116 33.9253 33.213L30.2825 42.9271C30.1955 43.1583 30.0402 43.3575 29.8371 43.4981C29.634 43.6387 29.3929 43.714 29.1459 43.714C28.8989 43.714 28.6578 43.6387 28.4547 43.4981C28.2517 43.3575 28.0963 43.1583 28.0094 42.9271L24.3666 33.213C24.3105 33.0636 24.2844 32.9046 24.2899 32.7451C24.2953 32.5857 24.3321 32.4288 24.3982 32.2836C24.4643 32.1383 24.5583 32.0075 24.675 31.8986C24.7917 31.7898 24.9287 31.705 25.0781 31.6491ZM2.49769 35.9087C2.43455 36.3968 2.43212 36.953 2.43212 37.6427C2.43212 38.3324 2.43212 38.8885 2.49769 39.3766C2.56084 39.8526 2.67012 40.1659 2.82312 40.3869C3.08054 40.7585 3.76053 41.2855 6.07491 41.2855C6.39696 41.2855 6.70581 41.4134 6.93353 41.6411C7.16125 41.8688 7.28918 42.1777 7.28918 42.4997C7.28918 42.8218 7.16125 43.1306 6.93353 43.3583C6.70581 43.5861 6.39696 43.714 6.07491 43.714C3.53225 43.714 1.78371 43.1554 0.826867 41.7663C0.417806 41.1434 0.164592 40.4312 0.0885955 39.6899C0.017679 39.0237 -0.0107115 38.3537 0.00359687 37.684V37.6014C0.00359687 36.9603 0.00359708 36.2535 0.0885955 35.5954C0.178451 34.9106 0.372733 34.1747 0.826867 33.519C1.78371 32.1299 3.53225 31.5713 6.07491 31.5713C6.39696 31.5713 6.70581 31.6993 6.93353 31.927C7.16125 32.1547 7.28918 32.4636 7.28918 32.7856C7.28918 33.1077 7.16125 33.4165 6.93353 33.6442C6.70581 33.8719 6.39696 33.9999 6.07491 33.9999C3.76053 33.9999 3.08054 34.5269 2.82312 34.8984C2.67012 35.1194 2.56084 35.4327 2.49769 35.9087Z" fill="#16B1E6"/>
</svg>
