<svg width="27" height="30" viewBox="0 0 27 30" fill="none" xmlns="http://www.w3.org/2000/svg">
<path fill-rule="evenodd" clip-rule="evenodd" d="M2.84375 2.1318C2.84375 1.56654 3.0683 1.02443 3.468 0.624735C3.8677 0.225037 4.4098 0.000488281 4.97506 0.000488281H17.7629C17.9514 0.000488281 18.1321 0.0753377 18.2653 0.208571C18.3985 0.341803 18.4734 0.522506 18.4734 0.710926C18.4734 0.899345 18.3985 1.08005 18.2653 1.21328C18.1321 1.34651 17.9514 1.42136 17.7629 1.42136H4.97506C4.78664 1.42136 4.60594 1.49621 4.47271 1.62945C4.33947 1.76268 4.26463 1.94338 4.26463 2.1318V14.9197C4.26463 15.1081 4.18978 15.2888 4.05654 15.422C3.92331 15.5553 3.74261 15.6301 3.55419 15.6301C3.36577 15.6301 3.18507 15.5553 3.05183 15.422C2.9186 15.2888 2.84375 15.1081 2.84375 14.9197V2.1318ZM26.2882 8.52574C26.4766 8.52574 26.6573 8.60059 26.7905 8.73382C26.9238 8.86705 26.9986 9.04776 26.9986 9.23617V20.6032C26.9986 20.7916 26.9238 20.9723 26.7905 21.1055C26.6573 21.2388 26.4766 21.3136 26.2882 21.3136C26.0998 21.3136 25.9191 21.2388 25.7858 21.1055C25.6526 20.9723 25.5778 20.7916 25.5778 20.6032V9.23617C25.5778 9.04776 25.6526 8.86705 25.7858 8.73382C25.9191 8.60059 26.0998 8.52574 26.2882 8.52574ZM26.2882 24.1554C26.4766 24.1554 26.6573 24.2302 26.7905 24.3634C26.9238 24.4967 26.9986 24.6774 26.9986 24.8658V27.7075C26.9986 28.2728 26.7741 28.8149 26.3744 29.2146C25.9747 29.6143 25.4326 29.8389 24.8673 29.8389H6.39594C6.20752 29.8389 6.02682 29.764 5.89358 29.6308C5.76035 29.4975 5.6855 29.3168 5.6855 29.1284C5.6855 28.94 5.76035 28.7593 5.89358 28.6261C6.02682 28.4928 6.20752 28.418 6.39594 28.418H24.8673C25.0557 28.418 25.2364 28.3431 25.3697 28.2099C25.5029 28.0767 25.5778 27.896 25.5778 27.7075V24.8658C25.5778 24.6774 25.6526 24.4967 25.7858 24.3634C25.9191 24.2302 26.0998 24.1554 26.2882 24.1554Z" fill="white"/>
<path fill-rule="evenodd" clip-rule="evenodd" d="M17.4917 0.0542838C17.6214 0.000411724 17.7643 -0.0137631 17.9021 0.0135517C18.04 0.0408666 18.1666 0.108444 18.266 0.207738L26.7913 8.73299C26.8909 8.83235 26.9588 8.95905 26.9863 9.09703C27.0138 9.23501 26.9997 9.37805 26.9459 9.50802C26.892 9.638 26.8007 9.74905 26.6837 9.82709C26.5666 9.90514 26.429 9.94667 26.2883 9.94642H19.1839C18.6187 9.94642 18.0766 9.72187 17.6769 9.32217C17.2772 8.92247 17.0526 8.38036 17.0526 7.8151V0.710728C17.0526 0.570147 17.0944 0.432733 17.1725 0.315879C17.2507 0.199025 17.3617 0.107986 17.4917 0.0542838ZM18.4735 2.42715V7.8151C18.4735 8.00352 18.5483 8.18423 18.6816 8.31746C18.8148 8.45069 18.9955 8.52554 19.1839 8.52554H24.5733L18.4735 2.42715ZM6.39604 20.603C6.39604 20.0377 6.62059 19.4956 7.02029 19.0959C7.41999 18.6962 7.9621 18.4717 8.52736 18.4717H11.3691C11.5575 18.4717 11.7382 18.5465 11.8715 18.6797C12.0047 18.813 12.0795 18.9937 12.0795 19.1821C12.0795 19.3705 12.0047 19.5512 11.8715 19.6845C11.7382 19.8177 11.5575 19.8925 11.3691 19.8925H8.52736C8.33893 19.8925 8.15823 19.9674 8.025 20.1006C7.89177 20.2339 7.81692 20.4146 7.81692 20.603C7.81692 20.7914 7.89177 20.9721 8.025 21.1053C8.15823 21.2386 8.33893 21.3134 8.52736 21.3134H9.94823C10.5135 21.3134 11.0556 21.538 11.4553 21.9377C11.855 22.3374 12.0795 22.8795 12.0795 23.4447C12.0795 24.01 11.855 24.5521 11.4553 24.9518C11.0556 25.3515 10.5135 25.576 9.94823 25.576H7.10648C6.91806 25.576 6.73736 25.5012 6.60412 25.368C6.47089 25.2347 6.39604 25.054 6.39604 24.8656C6.39604 24.6772 6.47089 24.4965 6.60412 24.3632C6.73736 24.23 6.91806 24.1552 7.10648 24.1552H9.94823C10.1367 24.1552 10.3174 24.0803 10.4506 23.9471C10.5838 23.8139 10.6587 23.6331 10.6587 23.4447C10.6587 23.2563 10.5838 23.0756 10.4506 22.9424C10.3174 22.8091 10.1367 22.7343 9.94823 22.7343H8.52736C7.9621 22.7343 7.41999 22.5097 7.02029 22.11C6.62059 21.7103 6.39604 21.1682 6.39604 20.603ZM14.6726 18.5171C14.849 18.4513 15.0443 18.4582 15.2156 18.5363C15.3869 18.6143 15.5202 18.7572 15.5863 18.9335L17.0526 22.8423L18.5189 18.932C18.5853 18.7557 18.7189 18.6129 18.8905 18.5351C19.0621 18.4573 19.2576 18.4508 19.434 18.5171C19.6104 18.5835 19.7531 18.7171 19.831 18.8887C19.9088 19.0603 19.9152 19.2558 19.8489 19.4322L17.7176 25.1157C17.6667 25.2509 17.5758 25.3675 17.457 25.4497C17.3382 25.532 17.1971 25.576 17.0526 25.576C16.9081 25.576 16.767 25.532 16.6482 25.4497C16.5294 25.3675 16.4385 25.2509 16.3876 25.1157L14.2563 19.4322C14.2235 19.3448 14.2083 19.2517 14.2114 19.1584C14.2146 19.0651 14.2361 18.9733 14.2748 18.8884C14.3135 18.8034 14.3685 18.7268 14.4368 18.6632C14.505 18.5995 14.5852 18.5498 14.6726 18.5171ZM1.46134 21.0093C1.4244 21.2949 1.42298 21.6203 1.42298 22.0239C1.42298 22.4274 1.42298 22.7528 1.46134 23.0384C1.49829 23.3169 1.56223 23.5001 1.65174 23.6294C1.80235 23.8468 2.2002 24.1552 3.55429 24.1552C3.74271 24.1552 3.92341 24.23 4.05665 24.3632C4.18988 24.4965 4.26473 24.6772 4.26473 24.8656C4.26473 25.054 4.18988 25.2347 4.05665 25.368C3.92341 25.5012 3.74271 25.576 3.55429 25.576C2.06664 25.576 1.04361 25.2492 0.483781 24.4365C0.244448 24.0721 0.0962989 23.6554 0.0518352 23.2217C0.0103436 22.8319 -0.00626708 22.4399 0.00210445 22.048V21.9997C0.00210445 21.6246 0.00210457 21.2111 0.0518352 20.8261C0.104408 20.4254 0.218077 19.9948 0.483781 19.6112C1.04361 18.7985 2.06664 18.4717 3.55429 18.4717C3.74271 18.4717 3.92341 18.5465 4.05665 18.6797C4.18988 18.813 4.26473 18.9937 4.26473 19.1821C4.26473 19.3705 4.18988 19.5512 4.05665 19.6845C3.92341 19.8177 3.74271 19.8925 3.55429 19.8925C2.2002 19.8925 1.80235 20.2009 1.65174 20.4183C1.56223 20.5476 1.49829 20.7309 1.46134 21.0093Z" fill="white"/>
</svg>
