<svg width="12" height="14" viewBox="0 0 12 14" fill="none" xmlns="http://www.w3.org/2000/svg">
<path fill-rule="evenodd" clip-rule="evenodd" d="M1.26367 0.94725C1.26367 0.696024 1.36347 0.455087 1.54111 0.277443C1.71876 0.0997993 1.9597 0 2.21092 0H7.89442C7.97816 0 8.05848 0.0332664 8.11769 0.092481C8.17691 0.151696 8.21017 0.232008 8.21017 0.31575C8.21017 0.399492 8.17691 0.479804 8.11769 0.539019C8.05848 0.598233 7.97816 0.6315 7.89442 0.6315H2.21092C2.12718 0.6315 2.04687 0.664766 1.98765 0.723981C1.92844 0.783196 1.89517 0.863508 1.89517 0.94725V6.63075C1.89517 6.71449 1.86191 6.7948 1.80269 6.85402C1.74348 6.91323 1.66316 6.9465 1.57942 6.9465C1.49568 6.9465 1.41537 6.91323 1.35615 6.85402C1.29694 6.7948 1.26367 6.71449 1.26367 6.63075V0.94725ZM11.6834 3.789C11.7672 3.789 11.8475 3.82227 11.9067 3.88148C11.9659 3.9407 11.9992 4.02101 11.9992 4.10475V9.15675C11.9992 9.24049 11.9659 9.3208 11.9067 9.38002C11.8475 9.43923 11.7672 9.4725 11.6834 9.4725C11.5997 9.4725 11.5194 9.43923 11.4602 9.38002C11.4009 9.3208 11.3677 9.24049 11.3677 9.15675V4.10475C11.3677 4.02101 11.4009 3.9407 11.4602 3.88148C11.5194 3.82227 11.5997 3.789 11.6834 3.789ZM11.6834 10.7355C11.7672 10.7355 11.8475 10.7688 11.9067 10.828C11.9659 10.8872 11.9992 10.9675 11.9992 11.0512V12.3142C11.9992 12.5655 11.8994 12.8064 11.7217 12.9841C11.5441 13.1617 11.3031 13.2615 11.0519 13.2615H2.84242C2.75868 13.2615 2.67837 13.2282 2.61915 13.169C2.55994 13.1098 2.52667 13.0295 2.52667 12.9457C2.52667 12.862 2.55994 12.7817 2.61915 12.7225C2.67837 12.6633 2.75868 12.63 2.84242 12.63H11.0519C11.1357 12.63 11.216 12.5967 11.2752 12.5375C11.3344 12.4783 11.3677 12.398 11.3677 12.3142V11.0512C11.3677 10.9675 11.4009 10.8872 11.4602 10.828C11.5194 10.7688 11.5997 10.7355 11.6834 10.7355Z" fill="#A6ABC8"/>
<path fill-rule="evenodd" clip-rule="evenodd" d="M7.77407 0.0241261C7.83175 0.000182988 7.89524 -0.00611695 7.9565 0.006023C8.01776 0.0181629 8.07405 0.0481975 8.11824 0.0923281L11.9072 3.88133C11.9515 3.92549 11.9817 3.9818 11.9939 4.04312C12.0061 4.10445 11.9999 4.16802 11.9759 4.22579C11.952 4.28355 11.9114 4.33291 11.8594 4.3676C11.8074 4.40228 11.7462 4.42074 11.6837 4.42063H8.52619C8.27496 4.42063 8.03402 4.32083 7.85638 4.14319C7.67873 3.96554 7.57894 3.72461 7.57894 3.47338V0.315879C7.57895 0.253399 7.59749 0.192326 7.63223 0.140391C7.66696 0.0884557 7.71633 0.0479937 7.77407 0.0241261ZM8.21043 1.07873V3.47338C8.21043 3.55712 8.2437 3.63743 8.30292 3.69665C8.36213 3.75586 8.44244 3.78913 8.52619 3.78913H10.9215L8.21043 1.07873ZM2.84269 9.15688C2.84269 8.90565 2.94248 8.66472 3.12013 8.48707C3.29777 8.30943 3.53871 8.20963 3.78994 8.20963H5.05294C5.13668 8.20963 5.21699 8.2429 5.2762 8.30211C5.33542 8.36132 5.36869 8.44164 5.36869 8.52538C5.36869 8.60912 5.33542 8.68943 5.2762 8.74865C5.21699 8.80786 5.13668 8.84113 5.05294 8.84113H3.78994C3.70619 8.84113 3.62588 8.8744 3.56667 8.93361C3.50745 8.99282 3.47419 9.07314 3.47419 9.15688C3.47419 9.24062 3.50745 9.32093 3.56667 9.38015C3.62588 9.43936 3.70619 9.47263 3.78994 9.47263H4.42144C4.67266 9.47263 4.9136 9.57243 5.09124 9.75007C5.26889 9.92772 5.36869 10.1687 5.36869 10.4199C5.36869 10.6711 5.26889 10.912 5.09124 11.0897C4.9136 11.2673 4.67266 11.3671 4.42144 11.3671H3.15844C3.07469 11.3671 2.99438 11.3339 2.93517 11.2746C2.87595 11.2154 2.84269 11.1351 2.84269 11.0514C2.84269 10.9676 2.87595 10.8873 2.93517 10.8281C2.99438 10.7689 3.07469 10.7356 3.15844 10.7356H4.42144C4.50518 10.7356 4.58549 10.7024 4.6447 10.6431C4.70392 10.5839 4.73719 10.5036 4.73719 10.4199C4.73719 10.3361 4.70392 10.2558 4.6447 10.1966C4.58549 10.1374 4.50518 10.1041 4.42144 10.1041H3.78994C3.53871 10.1041 3.29777 10.0043 3.12013 9.82668C2.94248 9.64904 2.84269 9.4081 2.84269 9.15688ZM6.52117 8.22984C6.59956 8.20059 6.68635 8.20365 6.76248 8.23834C6.83862 8.27303 6.89787 8.33652 6.92723 8.41487L7.57894 10.1521L8.23064 8.41424C8.26012 8.33585 8.31953 8.27239 8.3958 8.23781C8.47206 8.20323 8.55895 8.20036 8.63733 8.22984C8.71571 8.25931 8.77917 8.31872 8.81376 8.39499C8.84834 8.47126 8.8512 8.55814 8.82173 8.63652L7.87448 11.1625C7.85187 11.2226 7.81147 11.2744 7.75866 11.311C7.70586 11.3475 7.64316 11.3671 7.57894 11.3671C7.51471 11.3671 7.45201 11.3475 7.39921 11.311C7.3464 11.2744 7.306 11.2226 7.28339 11.1625L6.33614 8.63652C6.32156 8.59767 6.31479 8.55633 6.3162 8.51486C6.31761 8.47338 6.32718 8.4326 6.34436 8.39483C6.36155 8.35706 6.38601 8.32304 6.41635 8.29473C6.44668 8.26642 6.48231 8.24437 6.52117 8.22984ZM0.649486 9.33749C0.633067 9.46442 0.632435 9.60903 0.632435 9.78838C0.632435 9.96772 0.632435 10.1123 0.649486 10.2393C0.665905 10.363 0.694322 10.4445 0.734107 10.502C0.801046 10.5986 0.977866 10.7356 1.57969 10.7356C1.66343 10.7356 1.74374 10.7689 1.80295 10.8281C1.86217 10.8873 1.89544 10.9676 1.89544 11.0514C1.89544 11.1351 1.86217 11.2154 1.80295 11.2746C1.74374 11.3339 1.66343 11.3671 1.57969 11.3671C0.918505 11.3671 0.463825 11.2219 0.215014 10.8607C0.108644 10.6987 0.0427995 10.5135 0.0230379 10.3207C0.00459715 10.1475 -0.00278537 9.97328 0.00093531 9.79911V9.77764C0.00093531 9.61093 0.000935365 9.42716 0.0230379 9.25602C0.0464034 9.07794 0.0969233 8.8866 0.215014 8.71609C0.463825 8.35487 0.918505 8.20963 1.57969 8.20963C1.66343 8.20963 1.74374 8.2429 1.80295 8.30211C1.86217 8.36132 1.89544 8.44164 1.89544 8.52538C1.89544 8.60912 1.86217 8.68943 1.80295 8.74865C1.74374 8.80786 1.66343 8.84113 1.57969 8.84113C0.977866 8.84113 0.801046 8.97816 0.734107 9.07478C0.694322 9.13225 0.665905 9.21371 0.649486 9.33749Z" fill="#A6ABC8"/>
</svg>
