<svg width="14" height="16" viewBox="0 0 14 16" fill="none" xmlns="http://www.w3.org/2000/svg">
<path d="M7 6.3C3.07475 6.3 0 4.91645 0 3.15C0 1.38355 3.07475 0 7 0C10.9253 0 14 1.38355 14 3.15C14 4.91645 10.9253 6.3 7 6.3ZM7 0.7C4.0201 0.7 0.7 1.70625 0.7 3.15C0.7 4.59375 4.0201 5.6 7 5.6C9.9799 5.6 13.3 4.59375 13.3 3.15C13.3 1.70625 9.9799 0.7 7 0.7Z" fill="#A6ABC8"/>
<path d="M7 9.10005C3.07475 9.10005 0 7.7165 0 5.95005V3.15005C0 3.05722 0.036875 2.9682 0.102513 2.90256C0.16815 2.83692 0.257174 2.80005 0.35 2.80005C0.442826 2.80005 0.53185 2.83692 0.597487 2.90256C0.663125 2.9682 0.7 3.05722 0.7 3.15005V5.95005C0.7 7.3938 4.0201 8.40005 7 8.40005C9.9799 8.40005 13.3 7.3938 13.3 5.95005V3.15005C13.3 3.05722 13.3369 2.9682 13.4025 2.90256C13.4682 2.83692 13.5572 2.80005 13.65 2.80005C13.7428 2.80005 13.8319 2.83692 13.8975 2.90256C13.9631 2.9682 14 3.05722 14 3.15005V5.95005C14 7.7165 10.9253 9.10005 7 9.10005Z" fill="#A6ABC8"/>
<path d="M7 12.2503C3.07475 12.2503 0 10.8668 0 9.10034V5.95034C0 5.85752 0.036875 5.76849 0.102513 5.70285C0.16815 5.63722 0.257174 5.60034 0.35 5.60034C0.442826 5.60034 0.53185 5.63722 0.597487 5.70285C0.663125 5.76849 0.7 5.85752 0.7 5.95034V9.10034C0.7 10.5441 4.0201 11.5503 7 11.5503C9.9799 11.5503 13.3 10.5441 13.3 9.10034V5.95034C13.3 5.85752 13.3369 5.76849 13.4025 5.70285C13.4682 5.63722 13.5572 5.60034 13.65 5.60034C13.7428 5.60034 13.8319 5.63722 13.8975 5.70285C13.9631 5.76849 14 5.85752 14 5.95034V9.10034C14 10.8668 10.9253 12.2503 7 12.2503Z" fill="#A6ABC8"/>
<path d="M7 15.3998C3.07475 15.3998 0 14.0162 0 12.2498V9.09976C0 9.00693 0.036875 8.91791 0.102513 8.85227C0.16815 8.78663 0.257174 8.74976 0.35 8.74976C0.442826 8.74976 0.53185 8.78663 0.597487 8.85227C0.663125 8.91791 0.7 9.00693 0.7 9.09976V12.2498C0.7 13.6935 4.0201 14.6998 7 14.6998C9.9799 14.6998 13.3 13.6935 13.3 12.2498V9.09976C13.3 9.00693 13.3369 8.91791 13.4025 8.85227C13.4682 8.78663 13.5572 8.74976 13.65 8.74976C13.7428 8.74976 13.8319 8.78663 13.8975 8.85227C13.9631 8.91791 14 9.00693 14 9.09976V12.2498C14 14.0162 10.9253 15.3998 7 15.3998Z" fill="#A6ABC8"/>
</svg>
