<svg width="102" height="102" viewBox="0 0 102 102" fill="none" xmlns="http://www.w3.org/2000/svg">
<g clip-path="url(#clip0_68_1923)">
<path d="M73.8621 50.9998C73.8621 38.408 63.5917 28.1377 51 28.1377C38.4083 28.1377 28.1379 38.408 28.1379 50.9998C28.1379 63.5915 38.4083 73.8618 51 73.8618C63.5917 73.8618 73.8621 63.5915 73.8621 50.9998ZM31.6552 50.9998C31.6552 40.3425 40.3428 31.6549 51 31.6549C61.6572 31.6549 70.3448 40.3425 70.3448 50.9998C70.3448 61.657 61.6572 70.3446 51 70.3446C40.3428 70.3446 31.6552 61.657 31.6552 50.9998Z" fill="#00B1E5"/>
<path d="M94.9655 0H7.03448C3.16552 0 0 3.16552 0 7.03448V79.1379C0 80.1228 0.773793 80.8966 1.75862 80.8966C2.74345 80.8966 3.51724 80.1228 3.51724 79.1379V58.0345C3.51724 55.1152 5.87379 52.7586 8.7931 52.7586H14.2097C14.2448 53.04 14.3152 53.3214 14.3855 53.7435C14.491 54.1303 14.5966 54.4821 14.6669 54.6228C14.9483 55.6428 15.3703 56.5924 15.8979 57.4366C15.9331 57.5069 16.1441 57.7883 16.1793 57.8586C16.2848 58.0345 16.3903 58.1752 16.4255 58.2103C18.1138 60.6372 20.6462 62.3255 23.6359 62.9938C23.9876 63.0641 24.3393 63.1345 24.691 63.1697C24.7614 63.1697 24.8317 63.1697 24.8669 63.1697C25.7462 63.1697 26.52 62.5014 26.6255 61.5869C26.731 60.6372 26.0276 59.7579 25.0779 59.6524C24.8669 59.6524 24.6207 59.5821 24.3393 59.5117C22.2993 59.0545 20.5407 57.8586 19.3448 56.1703C19.3448 56.1352 19.1338 55.889 19.0986 55.8538C18.9931 55.7131 18.8524 55.5372 18.8876 55.6076C18.5359 55.0097 18.2193 54.3414 17.9379 53.4269C17.8676 53.251 17.8324 53.0752 17.7972 52.8641C17.7621 52.5476 17.6917 52.2662 17.6566 51.9145C17.6566 51.6331 17.5862 51.3166 17.5862 51C17.5862 50.0152 16.8124 49.2414 15.8276 49.2414H8.7931C5.87379 49.2414 3.51724 46.8848 3.51724 43.9655V8.7931C3.51724 5.87379 5.87379 3.51724 8.7931 3.51724H43.9655C46.8848 3.51724 49.2414 5.87379 49.2414 8.7931V14.2097C48.96 14.2448 48.6786 14.3152 48.2566 14.3855C47.8697 14.491 47.5179 14.5966 47.3772 14.6669C46.3572 14.9483 45.4076 15.3703 44.5634 15.8979C44.4931 15.9331 44.2117 16.1441 44.1414 16.1793C43.9655 16.2848 43.8248 16.3903 43.7897 16.4255C41.3628 18.1138 39.6745 20.6462 39.0414 23.5303C38.971 23.9172 38.8655 24.269 38.8303 24.6559C38.7248 25.6055 39.4283 26.4848 40.3779 26.5903C41.3628 26.6959 42.2069 25.9924 42.3124 25.0428C42.3124 24.7966 42.3828 24.5503 42.4531 24.3041C42.9103 22.2641 44.1062 20.5055 45.7945 19.3097C45.8297 19.3097 46.0759 19.0986 46.111 19.0634C46.2517 18.9579 46.3924 18.8172 46.3572 18.8524C46.9552 18.5007 47.5883 18.1841 48.5028 17.9028C48.6786 17.8324 48.8545 17.7972 49.0655 17.7621C49.3821 17.7269 49.6635 17.6566 50.0152 17.6214C50.2966 17.6214 50.6131 17.551 50.9297 17.551C51.9145 17.551 52.6883 16.7772 52.6883 15.7924V8.75793C52.6883 5.83862 55.0448 3.48207 57.9641 3.48207H93.1366C96.0559 3.48207 98.4124 5.83862 98.4124 8.75793V43.9303C98.4124 46.8497 96.0559 49.2062 93.1366 49.2062H87.72C87.6848 48.9248 87.6145 48.6434 87.5441 48.2214C87.4386 47.8345 87.3331 47.4828 87.2628 47.3421C86.9814 46.3221 86.5593 45.3724 86.0317 44.5283C85.9966 44.4579 85.7855 44.1766 85.7503 44.1062C85.6448 43.9303 85.5393 43.7897 85.5041 43.7545C83.8159 41.3276 81.2835 39.6393 78.3993 39.0062C78.0124 38.9359 77.6607 38.8303 77.2738 38.7952C76.289 38.6897 75.4448 39.3931 75.3393 40.3428C75.2338 41.2924 75.9372 42.1717 76.8869 42.2772C77.1331 42.2772 77.3793 42.3476 77.6255 42.4179C79.6655 42.8752 81.4241 44.071 82.62 45.7593C82.62 45.7945 82.831 46.0407 82.8662 46.0759C82.9717 46.2166 83.0772 46.3924 83.0772 46.3221C83.429 46.92 83.7455 47.5531 84.0269 48.4676C84.0972 48.6434 84.1324 48.8193 84.1676 49.0303C84.2028 49.3469 84.2731 49.6283 84.3083 49.98C84.3083 50.2614 84.3786 50.5779 84.3786 50.8945C84.3786 51.8793 85.1524 52.6531 86.1372 52.6531H93.1717C96.091 52.6531 98.4476 55.0097 98.4476 57.929V93.1014C98.4476 96.0207 96.091 98.3772 93.1717 98.3772H57.9993C55.08 98.3772 52.7234 96.0207 52.7234 93.1014V87.6848C53.0048 87.6497 53.3214 87.5793 53.7083 87.509C54.0952 87.4035 54.4469 87.3331 54.5876 87.2276C55.6076 86.9462 56.5572 86.489 57.4014 85.9614C57.4717 85.9262 57.7531 85.7152 57.7883 85.68C57.9641 85.5745 58.1048 85.469 58.14 85.4338C60.5669 83.7455 62.2552 81.2131 62.8883 78.329C62.9586 77.9421 63.0641 77.5552 63.0993 77.1683C63.2048 76.2186 62.5014 75.3393 61.5517 75.2338C60.5669 75.1283 59.7228 75.8317 59.6172 76.7814C59.6172 77.0276 59.5469 77.2738 59.4766 77.52C59.0193 79.56 57.8234 81.3186 56.1352 82.5145C56.1 82.5145 55.8538 82.7255 55.8186 82.7607C55.6428 82.8662 55.5021 83.0069 55.5724 82.9717C54.9745 83.3234 54.3414 83.64 53.4269 83.8862C53.251 83.9566 53.0752 83.9917 52.8993 84.0269C52.5476 84.0972 52.231 84.1324 51.8793 84.1676C51.5979 84.1676 51.2814 84.2379 50.9648 84.2379C49.98 84.2379 49.2062 85.0117 49.2062 85.9966V93.031C49.2062 95.9503 46.8497 98.3069 43.9303 98.3069H8.7931C5.87379 98.3069 3.51724 95.9503 3.51724 93.031C3.51724 92.0462 2.74345 91.2724 1.75862 91.2724C0.773793 91.2724 0 92.0462 0 93.031V94.7897C0 98.6586 3.16552 101.824 7.03448 101.824H94.9655C98.8345 101.824 102 98.6586 102 94.7897V7.03448C102 3.16552 98.8345 0 94.9655 0Z" fill="#00B1E5"/>
<path d="M1.75862 87.9308C2.72988 87.9308 3.51724 87.1435 3.51724 86.1722C3.51724 85.2009 2.72988 84.4136 1.75862 84.4136C0.787361 84.4136 0 85.2009 0 86.1722C0 87.1435 0.787361 87.9308 1.75862 87.9308Z" fill="#00B1E5"/>
<path d="M49.98 42.3126V39.9912H48.0455V41.5036L45.1614 44.3878V47.7995C43.5083 48.2216 42.2772 49.6988 42.2772 51.4926C42.2772 53.6029 44.0007 55.3264 46.111 55.3264C48.2214 55.3264 49.9448 53.6029 49.9448 51.4926C49.9448 49.6988 48.7138 48.2216 47.0607 47.7995V45.1967L49.9448 42.3126H49.98ZM48.0455 51.4926C48.0455 52.5478 47.2014 53.4271 46.111 53.4271C45.0207 53.4271 44.1765 52.5829 44.1765 51.4926C44.1765 50.4022 45.0207 49.5581 46.111 49.5581C47.2014 49.5581 48.0455 50.4022 48.0455 51.4926Z" fill="#00B1E5"/>
<path d="M53.8138 60.7076V63.029H55.7483V61.5166L58.6325 58.6325V55.2207C60.2856 54.7987 61.5166 53.3214 61.5166 51.5276C61.5166 49.4173 59.7932 47.6938 57.6828 47.6938C55.5725 47.6938 53.849 49.4173 53.849 51.5276C53.849 53.3214 55.08 54.7987 56.7331 55.2207V57.8235L53.849 60.7076H53.8138ZM55.7483 51.5276C55.7483 50.4725 56.5925 49.5932 57.6828 49.5932C58.7732 49.5932 59.6173 50.4373 59.6173 51.5276C59.6173 52.618 58.7732 53.4621 57.6828 53.4621C56.5925 53.4621 55.7483 52.618 55.7483 51.5276Z" fill="#00B1E5"/>
</g>
<defs>
<clipPath id="clip0_68_1923">
<rect width="102" height="102" fill="white"/>
</clipPath>
</defs>
</svg>
