<svg xmlns="http://www.w3.org/2000/svg" width="113.723" height="29.147" viewBox="0 0 113.723 29.147">
  <g id="Group_4091" data-name="Group 4091" transform="translate(-1140.755 -1339.866)">
    <g id="Group_4088" data-name="Group 4088" transform="translate(1161.672 1351.571)">
      <path id="Path_7315" data-name="Path 7315" d="M1287.924,1424.044l-1.109.657a1.908,1.908,0,0,0-.593-.7,1.384,1.384,0,0,0-.757-.188,1.4,1.4,0,0,0-.945.323,1,1,0,0,0-.375.8q0,.663.986,1.068l.9.37a3.857,3.857,0,0,1,1.613,1.088,2.452,2.452,0,0,1,.51,1.575,2.768,2.768,0,0,1-.833,2.065,2.859,2.859,0,0,1-2.083.821,2.785,2.785,0,0,1-1.948-.7,3.215,3.215,0,0,1-.944-1.965l1.384-.305a2.352,2.352,0,0,0,.329,1.1,1.561,1.561,0,0,0,2.294.159,1.482,1.482,0,0,0,.422-1.085,1.52,1.52,0,0,0-.073-.484,1.229,1.229,0,0,0-.229-.405,1.828,1.828,0,0,0-.4-.346,3.87,3.87,0,0,0-.587-.308l-.874-.364a2.516,2.516,0,0,1-1.86-2.3,2.181,2.181,0,0,1,.78-1.707,2.818,2.818,0,0,1,1.942-.692A2.711,2.711,0,0,1,1287.924,1424.044Z" transform="translate(-1282.351 -1422.015)" fill="#fff"/>
      <path id="Path_7316" data-name="Path 7316" d="M1334.191,1423.71v9.058h-1.367v-9.058Z" transform="translate(-1325.368 -1423.03)" fill="#fff"/>
      <path id="Path_7317" data-name="Path 7317" d="M1354.665,1428.842l1.907-9.738,3.109,7.04,3.221-7.04,1.713,9.738h-1.4l-.874-5.467-2.681,5.884-2.6-5.89-.974,5.473Z" transform="translate(-1343.982 -1419.104)" fill="#fff"/>
      <path id="Path_7318" data-name="Path 7318" d="M1436.368,1423.71v5.456a3,3,0,0,0,.381,1.707,2.04,2.04,0,0,0,3.209,0,2.952,2.952,0,0,0,.381-1.707v-5.456h1.367v5.831a3.264,3.264,0,0,1-.892,2.358,3.449,3.449,0,0,1-4.922,0,3.263,3.263,0,0,1-.892-2.358v-5.831Z" transform="translate(-1412.451 -1423.03)" fill="#fff"/>
      <path id="Path_7319" data-name="Path 7319" d="M1496.451,1423.71v7.773h2.663v1.285h-4.03v-9.058Z" transform="translate(-1463.658 -1423.03)" fill="#fff"/>
      <path id="Path_7320" data-name="Path 7320" d="M1533.888,1427.285h-3.877l-1.009,2.2h-1.472l4.482-9.627,4.323,9.627h-1.5Zm-.557-1.285-1.344-3.08-1.408,3.08Z" transform="translate(-1491.31 -1419.746)" fill="#fff"/>
      <path id="Path_7321" data-name="Path 7321" d="M1596.028,1423.182v1.619a3.791,3.791,0,0,0-2.452-.991,3.121,3.121,0,0,0-2.352,1,3.381,3.381,0,0,0-.962,2.44,3.3,3.3,0,0,0,.962,2.405,3.177,3.177,0,0,0,2.358.979,2.89,2.89,0,0,0,1.226-.235,3.548,3.548,0,0,0,.584-.317,6.9,6.9,0,0,0,.637-.481v1.648a4.937,4.937,0,0,1-2.464.663,4.546,4.546,0,0,1-3.315-1.355,4.493,4.493,0,0,1-1.367-3.3,4.651,4.651,0,0,1,1.144-3.086,4.555,4.555,0,0,1,3.643-1.66A4.624,4.624,0,0,1,1596.028,1423.182Z" transform="translate(-1543.601 -1422.015)" fill="#fff"/>
      <path id="Path_7322" data-name="Path 7322" d="M1651.994,1428.908l2.8,3.86h-1.672l-2.587-3.708h-.246v3.708h-1.367v-9.058h1.6a4,4,0,0,1,2.593.675,2.478,2.478,0,0,1,.88,1.983,2.573,2.573,0,0,1-.551,1.654A2.458,2.458,0,0,1,1651.994,1428.908Zm-1.7-1.039h.434q1.941,0,1.942-1.484,0-1.39-1.889-1.39h-.487Z" transform="translate(-1594.774 -1423.03)" fill="#fff"/>
      <path id="Path_7323" data-name="Path 7323" d="M1698.344,1423.71v5.456a3,3,0,0,0,.382,1.707,2.04,2.04,0,0,0,3.209,0,2.95,2.95,0,0,0,.381-1.707v-5.456h1.367v5.831a3.263,3.263,0,0,1-.892,2.358,3.449,3.449,0,0,1-4.922,0,3.263,3.263,0,0,1-.892-2.358v-5.831Z" transform="translate(-1635.727 -1423.03)" fill="#fff"/>
      <path id="Path_7324" data-name="Path 7324" d="M1754.916,1428.842l1.907-9.738,3.109,7.04,3.221-7.04,1.713,9.738h-1.4l-.874-5.467-2.681,5.884-2.6-5.89-.974,5.473Z" transform="translate(-1685.107 -1419.104)" fill="#fff"/>
    </g>
    <g id="Group_4089" data-name="Group 4089" transform="translate(1243.174 1351.683)">
      <path id="Path_7325" data-name="Path 7325" d="M1840.426,1427.285h-3.878l-1.009,2.2h-1.472l4.482-9.627,4.324,9.627h-1.5Zm-.557-1.285-1.343-3.08-1.408,3.08Z" transform="translate(-1834.067 -1419.858)" fill="#00b1e5"/>
      <path id="Path_7326" data-name="Path 7326" d="M1902.7,1423.71v9.058h-1.367v-9.058Z" transform="translate(-1891.401 -1423.141)" fill="#00b1e5"/>
    </g>
    <g id="Group_4090" data-name="Group 4090" transform="translate(1140.755 1339.866)">
      <path id="Path_7327" data-name="Path 7327" d="M1160.411,1389.28q0,1.7,0,3.4a2.557,2.557,0,0,1-1.3,2.3,3.85,3.85,0,0,1-1.379.6,2.562,2.562,0,0,1-2.488-.853c-.75-.865-1.45-1.773-2.17-2.663q-1.788-2.211-3.574-4.424-2.252-2.784-4.5-5.568a2.7,2.7,0,0,1,1.1-4.2,2.878,2.878,0,0,1,2.552.213c1.727.922,3.468,1.818,5.2,2.726s3.464,1.8,5.182,2.723a2.5,2.5,0,0,1,1.38,2.31c.012,1.146,0,2.292,0,3.439Z" transform="translate(-1143.859 -1372.079)" fill="#00b1e5"/>
      <path id="Path_7328" data-name="Path 7328" d="M1146.966,1472.938a2.553,2.553,0,0,1,1.833,1q.681.835,1.356,1.674a2.733,2.733,0,0,1,.218,3.141,2.4,2.4,0,0,1-.864.85c-.677.377-1.362.741-2.045,1.106-.576.307-1.149.619-1.733.91a9.589,9.589,0,0,1-1.53.693,2.529,2.529,0,0,1-2.559-.661,2.652,2.652,0,0,1-.885-2.113,2.414,2.414,0,0,1,.492-1.461c.538-.671,1.082-1.337,1.623-2,.6-.739,1.188-1.485,1.8-2.213A2.748,2.748,0,0,1,1146.966,1472.938Z" transform="translate(-1140.755 -1453.28)" fill="#00b1e5"/>
      <path id="Path_7329" data-name="Path 7329" d="M1202.455,1342.633a3,3,0,0,1-.863,2.126c-.541.643-1.063,1.3-1.59,1.959a2.7,2.7,0,0,1-2.241,1.075,2.741,2.741,0,0,1-1.258-.354c-.462-.246-.934-.475-1.391-.729a2.7,2.7,0,0,1,.012-4.757c1.145-.612,2.289-1.229,3.451-1.808a2.664,2.664,0,0,1,3.784,1.78C1202.413,1342.157,1202.424,1342.4,1202.455,1342.633Z" transform="translate(-1185.879 -1339.866)" fill="#00b1e5"/>
    </g>
  </g>
</svg>
