<?xml version="1.0" encoding="utf-8"?>
<!-- Generator: Adobe Illustrator 27.0.0, SVG Export Plug-In . SVG Version: 6.00 Build 0)  -->
<svg version="1.1" id="Layer_1" xmlns="http://www.w3.org/2000/svg" xmlns:xlink="http://www.w3.org/1999/xlink" x="0px" y="0px"  height='20'
	 viewBox="0 0 113.719 29.144" style="enable-background:new 0 0 113.719 29.144;" xml:space="preserve">
<style type="text/css">
	.st0{fill:#FFFFFF;}
</style>
<g id="Group_4091">
	<g id="Group_4088">
		<path id="Path_7315" class="st0" d="M26.491,13.736l-1.109,0.657c-0.138-0.278-0.341-0.518-0.593-0.7
			c-0.229-0.134-0.492-0.199-0.757-0.188c-0.344-0.012-0.68,0.103-0.945,0.323c-0.242,0.194-0.381,0.49-0.375,0.8
			c0,0.442,0.329,0.798,0.986,1.068l0.9,0.37c0.622,0.219,1.177,0.594,1.613,1.088c0.347,0.45,0.528,1.007,0.51,1.575
			c0.024,0.775-0.279,1.524-0.833,2.065c-0.554,0.546-1.306,0.842-2.083,0.821c-0.715,0.026-1.413-0.225-1.948-0.7
			c-0.534-0.525-0.868-1.22-0.944-1.965l1.384-0.305c0.017,0.388,0.13,0.766,0.329,1.1c0.538,0.674,1.52,0.784,2.194,0.246
			c0.035-0.028,0.068-0.057,0.1-0.087c0.283-0.289,0.435-0.681,0.422-1.085c0.002-0.164-0.023-0.328-0.073-0.484
			c-0.05-0.148-0.128-0.286-0.229-0.405c-0.116-0.134-0.251-0.251-0.4-0.346c-0.187-0.119-0.383-0.222-0.587-0.308l-0.874-0.364
			c-1.053-0.283-1.804-1.211-1.86-2.3c-0.011-0.657,0.276-1.285,0.78-1.707c0.537-0.468,1.23-0.715,1.942-0.692
			C25.082,12.208,26.035,12.8,26.491,13.736z"/>
		<path id="Path_7316" class="st0" d="M29.741,12.387v9.058h-1.367v-9.058H29.741z"/>
		<path id="Path_7317" class="st0" d="M31.601,21.445l1.907-9.738l3.109,7.04l3.221-7.04l1.713,9.738h-1.4l-0.874-5.467
			l-2.681,5.884l-2.6-5.89l-0.974,5.473C33.022,21.445,31.601,21.445,31.601,21.445z"/>
		<path id="Path_7318" class="st0" d="M44.835,12.387v5.456c-0.045,0.594,0.087,1.188,0.381,1.707
			c0.696,0.886,1.978,1.04,2.864,0.345c0.128-0.101,0.244-0.216,0.345-0.345c0.297-0.517,0.429-1.113,0.381-1.707v-5.456h1.367
			v5.831c0.031,0.874-0.291,1.723-0.892,2.358c-1.335,1.359-3.518,1.379-4.877,0.045c-0.015-0.015-0.03-0.03-0.045-0.045
			c-0.601-0.635-0.923-1.484-0.892-2.358v-5.831C43.467,12.387,44.835,12.387,44.835,12.387z"/>
		<path id="Path_7319" class="st0" d="M53.712,12.387v7.773h2.663v1.285h-4.03v-9.058H53.712z"/>
		<path id="Path_7320" class="st0" d="M63.496,19.246h-3.877l-1.009,2.2h-1.472l4.482-9.627l4.323,9.627h-1.5
			C64.443,21.446,63.496,19.246,63.496,19.246z M62.939,17.961l-1.344-3.08l-1.408,3.08C60.187,17.961,62.939,17.961,62.939,17.961z
			"/>
		<path id="Path_7321" class="st0" d="M73.345,12.874v1.619c-0.672-0.614-1.542-0.966-2.452-0.991c-0.891-0.018-1.747,0.346-2.352,1
			c-0.636,0.651-0.983,1.53-0.962,2.44c-0.021,0.899,0.327,1.768,0.962,2.405c0.615,0.642,1.47,0.997,2.358,0.979
			c0.421,0.012,0.839-0.068,1.226-0.235c0.204-0.087,0.4-0.193,0.584-0.317c0.221-0.148,0.434-0.308,0.637-0.481v1.648
			c-0.749,0.433-1.599,0.662-2.464,0.663c-1.244,0.021-2.442-0.469-3.315-1.355c-0.892-0.864-1.387-2.058-1.367-3.3
			c-0.008-1.134,0.399-2.231,1.144-3.086c0.893-1.086,2.238-1.699,3.643-1.66C71.819,12.21,72.634,12.442,73.345,12.874z"/>
		<path id="Path_7322" class="st0" d="M78.138,17.585l2.8,3.86h-1.672l-2.587-3.708h-0.246v3.708h-1.367v-9.058h1.6
			c0.916-0.08,1.832,0.159,2.593,0.675c0.583,0.491,0.907,1.222,0.88,1.983c0.014,0.599-0.18,1.184-0.551,1.654
			C79.225,17.157,78.711,17.471,78.138,17.585z M76.438,16.546h0.434c1.294,0,1.941-0.495,1.942-1.484c0-0.927-0.63-1.39-1.889-1.39
			h-0.487V16.546z"/>
		<path id="Path_7323" class="st0" d="M83.535,12.387v5.456c-0.045,0.594,0.088,1.189,0.382,1.707
			c0.696,0.886,1.978,1.04,2.864,0.345c0.128-0.101,0.244-0.216,0.345-0.345c0.297-0.517,0.429-1.113,0.381-1.707v-5.456h1.367
			v5.831c0.031,0.874-0.291,1.723-0.892,2.358c-1.335,1.359-3.518,1.379-4.877,0.045c-0.015-0.015-0.03-0.03-0.045-0.045
			c-0.601-0.635-0.923-1.484-0.892-2.358v-5.831C82.168,12.387,83.535,12.387,83.535,12.387z"/>
		<path id="Path_7324" class="st0" d="M90.727,21.445l1.907-9.738l3.109,7.04l3.221-7.04l1.713,9.738h-1.4l-0.874-5.467
			l-2.681,5.884l-2.6-5.89l-0.974,5.473H90.727z"/>
	</g>
	<g id="Group_4089">
		<path id="Path_7325" class="st0" d="M108.779,19.246h-3.878l-1.009,2.2h-1.472l4.482-9.627l4.324,9.627h-1.5L108.779,19.246z
			 M108.222,17.961l-1.343-3.08l-1.408,3.08H108.222z"/>
		<path id="Path_7326" class="st0" d="M113.719,12.388v9.058h-1.367v-9.058H113.719z"/>
	</g>
	<g id="Group_4090">
		<path id="Path_7327" class="st0" d="M16.553,17.203v3.4c0.027,0.948-0.474,1.834-1.3,2.3c-0.416,0.289-0.884,0.493-1.379,0.6
			c-0.923,0.196-1.879-0.132-2.488-0.853c-0.75-0.865-1.45-1.773-2.17-2.663c-1.192-1.474-2.383-2.949-3.574-4.424
			c-1.501-1.856-3.001-3.712-4.5-5.568C0.207,8.834,0.39,7.134,1.552,6.199c0.209-0.168,0.441-0.304,0.69-0.404
			c0.837-0.332,1.781-0.253,2.552,0.213c1.727,0.922,3.468,1.818,5.2,2.726s3.464,1.8,5.182,2.723c0.87,0.436,1.409,1.337,1.38,2.31
			c0.012,1.146,0,2.292,0,3.439C16.556,17.206,16.553,17.203,16.553,17.203z"/>
		<path id="Path_7328" class="st0" d="M6.212,19.66c0.726,0.057,1.392,0.421,1.833,1c0.454,0.557,0.906,1.115,1.356,1.674
			c0.729,0.896,0.816,2.153,0.218,3.141c-0.211,0.353-0.508,0.645-0.864,0.85c-0.677,0.377-1.362,0.741-2.045,1.106
			c-0.576,0.307-1.149,0.619-1.733,0.91c-0.489,0.275-1.001,0.507-1.53,0.693c-0.909,0.278-1.898,0.023-2.559-0.661
			c-0.599-0.534-0.925-1.311-0.885-2.113c0-0.528,0.173-1.041,0.492-1.461c0.538-0.671,1.082-1.337,1.623-2
			c0.6-0.739,1.188-1.485,1.8-2.213C4.493,19.931,5.344,19.588,6.212,19.66z"/>
		<path id="Path_7329" class="st0" d="M16.577,2.769c0.005,0.795-0.305,1.56-0.863,2.126c-0.541,0.643-1.063,1.3-1.59,1.959
			c-0.528,0.701-1.364,1.102-2.241,1.075c-0.442-0.015-0.873-0.136-1.258-0.354C10.163,7.329,9.691,7.1,9.234,6.846
			c-1.312-0.709-1.8-2.347-1.091-3.659c0.252-0.466,0.636-0.848,1.103-1.098c1.145-0.612,2.289-1.229,3.451-1.808
			c1.317-0.657,2.916-0.122,3.573,1.194c0.093,0.186,0.164,0.383,0.211,0.586C16.535,2.293,16.546,2.536,16.577,2.769z"/>
	</g>
</g>
</svg>
