<svg width="47" height="45" viewBox="0 0 47 45" fill="none" xmlns="http://www.w3.org/2000/svg">
<path d="M45.4406 20.0121L33.497 15.5911L29.0371 0.973949C28.9529 0.69939 28.7828 0.459099 28.5518 0.288391C28.3209 0.11768 28.0412 0.0255547 27.7541 0.0255547C27.4669 0.0255547 27.1872 0.11768 26.9563 0.288391C26.7253 0.459099 26.5552 0.69939 26.471 0.973949L22.0124 15.5911L10.0675 20.0121C9.81062 20.1074 9.5891 20.2791 9.43266 20.504C9.27623 20.7289 9.19238 20.9963 9.19238 21.2703C9.19238 21.5443 9.27623 21.8117 9.43266 22.0366C9.5891 22.2615 9.81062 22.4332 10.0675 22.5285L22.0071 26.9482L26.4669 42.0109C26.549 42.2886 26.7187 42.5323 26.9507 42.7057C27.1827 42.879 27.4645 42.9727 27.7541 42.9727C28.0436 42.9727 28.3255 42.879 28.5574 42.7057C28.7894 42.5323 28.9591 42.2886 29.0412 42.0109L33.5024 26.9482L45.442 22.5285C45.6999 22.4342 45.9227 22.2629 46.08 22.0377C46.2373 21.8126 46.3216 21.5445 46.3215 21.2698C46.3213 20.9952 46.2368 20.7272 46.0792 20.5022C45.9216 20.2772 45.6987 20.1061 45.4406 20.0121Z" fill="url(#paint0_linear_1588_5690)"/>
<path d="M18.5977 34.7761L15.4934 33.6272L14.2855 29.1982C14.2082 28.9139 14.0395 28.6629 13.8055 28.4839C13.5714 28.305 13.2849 28.208 12.9903 28.208C12.6957 28.208 12.4092 28.305 12.1752 28.4839C11.9411 28.6629 11.7724 28.9139 11.6952 29.1982L10.4872 33.6272L7.3829 34.7761C7.12605 34.8714 6.90453 35.0431 6.74809 35.268C6.59166 35.4929 6.50781 35.7604 6.50781 36.0343C6.50781 36.3083 6.59166 36.5757 6.74809 36.8006C6.90453 37.0256 7.12605 37.1972 7.3829 37.2926L10.4711 38.4374L11.6885 43.2986C11.7612 43.5888 11.9288 43.8464 12.1647 44.0304C12.4005 44.2145 12.6911 44.3145 12.9903 44.3145C13.2895 44.3145 13.5801 44.2145 13.816 44.0304C14.0518 43.8464 14.2195 43.5888 14.2922 43.2986L15.5095 38.4374L18.5977 37.2926C18.8546 37.1972 19.0761 37.0256 19.2325 36.8006C19.389 36.5757 19.4728 36.3083 19.4728 36.0343C19.4728 35.7604 19.389 35.4929 19.2325 35.268C19.0761 35.0431 18.8546 34.8714 18.5977 34.7761Z" fill="#FCAB40"/>
<path d="M12.7773 5.70149L9.60315 4.52713L8.42878 1.35299C8.3337 1.09569 8.16206 0.873702 7.93697 0.71692C7.71189 0.560137 7.44417 0.476089 7.16986 0.476089C6.89556 0.476089 6.62784 0.560137 6.40275 0.71692C6.17767 0.873702 6.00603 1.09569 5.91095 1.35299L4.73524 4.52713L1.56245 5.70149C1.30515 5.79657 1.08316 5.96821 0.92638 6.1933C0.769597 6.41838 0.685547 6.6861 0.685547 6.96041C0.685547 7.23471 0.769597 7.50243 0.92638 7.72751C1.08316 7.9526 1.30515 8.12424 1.56245 8.21932L4.73524 9.39369L5.91095 12.5678C6.00545 12.8257 6.17687 13.0483 6.40203 13.2056C6.62718 13.3629 6.89521 13.4473 7.16986 13.4473C7.44452 13.4473 7.71255 13.3629 7.9377 13.2056C8.16286 13.0483 8.33428 12.8257 8.42878 12.5678L9.60315 9.39369L12.7773 8.21932C13.0346 8.12424 13.2566 7.9526 13.4133 7.72751C13.5701 7.50243 13.6542 7.23471 13.6542 6.96041C13.6542 6.6861 13.5701 6.41838 13.4133 6.1933C13.2566 5.96821 13.0346 5.79657 12.7773 5.70149Z" fill="url(#paint1_angular_1588_5690)"/>
<defs>
<linearGradient id="paint0_linear_1588_5690" x1="27.6116" y1="43.3005" x2="27.6116" y2="-0.0598989" gradientUnits="userSpaceOnUse">
<stop stop-color="#00EFD1"/>
<stop offset="1" stop-color="#00ACEA"/>
</linearGradient>
<radialGradient id="paint1_angular_1588_5690" cx="0" cy="0" r="1" gradientUnits="userSpaceOnUse" gradientTransform="translate(3.63199 -5.31632) rotate(-108.298) scale(31.2683 3.58569)">
<stop stop-color="#00EFD1"/>
<stop offset="1" stop-color="#00ACEA"/>
</radialGradient>
</defs>
</svg>
